<?xml version="1.0" encoding="utf-8"?>
<!-- Generator: Adobe Illustrator 24.3.0, SVG Export Plug-In . SVG Version: 6.00 Build 0)  -->
<svg version="1.1" id="Layer_1" xmlns="http://www.w3.org/2000/svg" xmlns:xlink="http://www.w3.org/1999/xlink" x="0px" y="0px"
	 viewBox="0 0 1000 1000" style="enable-background:new 0 0 1000 1000;" xml:space="preserve">
<style type="text/css">
	.st0{fill:#182D57;}
</style>
<g>
	<path class="st0" d="M166.25,663.73c40.43,2.21,80.95,3.43,121.25,7.1c50.56,4.6,100.26,14.43,148.07,32.2
		c13.5,5.02,26.7,10.86,40.5,16.52c0-198.06,0-395.38,0-592.98c-1.98-0.71-3.85-1.47-5.76-2.06
		c-96.77-29.73-195.65-44.98-296.99-43.67c-19.98,0.26-22.89,2.8-22.89,22.48c0,179.29,0,358.58,0,537.87c0,2.33-0.06,4.67,0.03,7
		C150.86,658.7,155.59,663.15,166.25,663.73z M321.03,265.01c66.5,0.69,119.57,54.65,119.03,121.03
		c-0.54,66.53-54.61,119.66-120.97,118.85c-66.14-0.81-119.2-54.55-118.85-120.36C200.59,318.43,255.27,264.33,321.03,265.01z"/>
	<path class="st0" d="M926.37,694c0-58.01,0.05-116.02-0.02-174.02c-0.04-33.51-19.65-53.35-53.19-53.4
		c-90.06-0.13-180.12-0.14-270.18,0.01c-33.37,0.06-53.14,20.22-53.15,53.57c-0.02,115.43-0.02,230.86,0,346.3
		c0,34.41,19.81,54.24,54.21,54.25c89.18,0.02,178.38-0.63,267.55,0.35c30.65,0.34,55.78-20.99,55.1-54.78
		C925.53,808.87,926.37,751.42,926.37,694z M668.73,834.68c-0.36,8.24-4.23,12.21-12.43,12.49c-6.39,0.22-12.8,0.04-19.2,0.04
		c-6.69-0.02-13.38,0.14-20.07-0.06c-7.21-0.22-11.54-3.97-11.62-11.35c-0.21-19.52-2.95-26.5,23.15-25.32
		c8.71,0.39,17.45-0.04,26.17,0.09c9.88,0.15,13.77,4.01,14.01,13.64C668.83,827.69,668.88,831.19,668.73,834.68z M645.91,769.46
		c-3.2,0-6.39,0-9.59,0c0-0.02,0-0.03,0-0.05c-6.39,0-12.79,0.18-19.17-0.05c-7.63-0.27-11.44-4.31-11.87-12.1
		c-1.22-22.02,0.7-24.22,22.35-24.22c9.59,0,19.18-0.16,28.76,0.07c8.36,0.2,11.95,4.01,12.37,12.39
		C669.86,767.31,667.8,769.46,645.91,769.46z M628.07,654.96c7.85,0,15.7-0.02,23.56,0c13.84,0.04,17.1,3.23,17.13,16.73
		c0.01,2.62,0.07,5.24-0.03,7.85c-0.29,7.65-4.19,11.87-11.95,12.02c-6.69,0.13-13.38,0.03-20.07,0.03
		c-6.69-0.02-13.38,0.13-20.06-0.06c-6.87-0.19-10.68-3.87-11.26-10.78c-0.05-0.58-0.05-1.16-0.08-1.74
		C604.21,657.04,606.18,654.96,628.07,654.96z M747,850.79c-9.3-0.46-18.64,0.08-27.96-0.13c-8.73-0.19-12.65-4.15-13.11-12.92
		c-0.2-3.78-0.22-7.58,0-11.36c0.51-8.65,4.49-12.28,13.38-12.54c0.29-0.01,0.58,0,0.87,0c6.12,0,12.23,0,18.35,0
		c6.7,0.02,13.4-0.1,20.1,0.05c7.35,0.17,11.5,4.2,11.55,11.45C770.33,843.96,773.64,852.09,747,850.79z M718.54,769.39
		c-7.67-0.18-11.75-4.22-12.06-11.94c-0.07-1.74-0.07-3.49-0.08-5.23c-0.08-17.3,1.74-19.16,18.79-19.17
		c10.75,0,21.5,0.03,32.25,0.01c8.24-0.02,12.28,4.26,12.6,12.28c0.13,3.19,0.08,6.39,0.03,9.59c-0.19,10.5-3.76,14.25-14.06,14.5
		c-5.81,0.14-11.62,0.03-17.43,0.03c0-0.01,0-0.02,0-0.04C731.91,769.42,725.22,769.54,718.54,769.39z M770.08,678.25
		c-0.34,9.31-4.13,13.07-13.38,13.36c-0.29,0.01-0.58,0-0.87,0c-5.82,0-11.63,0-17.45,0c-6.69-0.02-13.38,0.04-20.07-0.04
		c-7.36-0.09-11.19-4.07-11.77-11.27c-0.19-2.31-0.13-4.65-0.13-6.98c0-15.72,2.59-18.35,18.11-18.37
		c9.89-0.01,19.78-0.05,29.66,0.01c12.34,0.08,15.84,3.69,15.91,16.3C770.1,673.6,770.16,675.93,770.08,678.25z M738.76,602.31
		c-39.06,0-78.12,0.01-117.19-0.01c-13.41-0.01-16.22-2.88-16.27-16.53c-0.04-11.08-0.05-22.16,0-33.24
		c0.06-12.98,2.96-15.97,16.04-15.99c52.47-0.06,104.94-0.03,157.42-0.03c25.36,0,50.72-0.05,76.08,0.02
		c13.25,0.04,16.47,3.35,16.52,16.62c0.04,11.08,0.06,22.16-0.01,33.24c-0.07,12.44-3.59,15.88-16.29,15.89
		C816.3,602.33,777.53,602.31,738.76,602.31z M807.6,666.94c0.44-7.59,4.72-11.79,12.32-11.89c13.09-0.18,26.18-0.24,39.27,0.02
		c7.59,0.15,11.69,4.58,12.12,12.13c0.23,4.06,0.25,8.16,0,12.21c-0.48,7.92-4.57,12.27-12.81,12.21c-6.4-0.05-12.8-0.01-19.2-0.01
		c-6.69-0.02-13.38,0.06-20.07-0.04c-6.96-0.11-10.79-4.04-11.5-10.68C807.24,676.28,807.33,671.57,807.6,666.94z M807.56,745.3
		c0.35-7.97,4.37-12.3,12.66-12.26c12.79,0.06,25.58,0.06,38.37,0c8.27-0.04,12.27,4.27,12.72,12.22c0.18,3.19,0.11,6.4,0.04,9.59
		c-0.24,10.84-3.85,14.4-14.91,14.58c-5.81,0.09-11.63,0.02-17.44,0.02c0-0.03,0-0.05,0-0.08c-6.69,0-13.38,0.2-20.06-0.06
		c-6.85-0.26-10.71-4.2-11.28-10.95C807.3,754.05,807.37,749.65,807.56,745.3z M872.78,836.11c-0.3,10.92-3.94,14.47-14.97,14.59
		c-5.82,0.07-11.65,0.01-17.47,0.01c-6.41-0.01-12.82,0.16-19.22-0.05c-8.38-0.28-12.43-4.1-12.53-12.33
		c-0.23-19.48-2.59-25.7,22.97-24.56c9.3,0.41,18.63-0.04,27.95,0.1c8.94,0.13,12.66,3.74,13.23,12.63
		C872.94,829.69,872.86,832.91,872.78,836.11z"/>
	<path class="st0" d="M818.12,438.54c3.7,0,7.39,0,12.09,0c0-4.75,0-8.46,0-12.18c0-96.2,0-192.41,0-288.61
		c0-13.99,0.17-27.99-0.11-41.98c-0.19-9.56-5.27-14.87-14.6-14.85c-52.78,0.13-105.75,0.46-157.72,9.98
		c-48.3,8.84-95.86,21.69-143.82,32.44c-7.56,1.69-9.87,4.77-9.86,12.77c0.28,191.24,0.22,382.48,0.22,573.73c0,3.06,0,6.12,0,9.47
		c17.53-5.49,17.53-5.49,17.53-21.87c0-59.47-0.2-118.94,0.2-178.41c0.07-9.74,1.48-19.91,4.57-29.1
		c10.97-32.58,39.55-51.28,77.26-51.35C675.29,438.45,746.71,438.54,818.12,438.54z M618.29,180.66
		c44.09-8.55,88.62-12.95,133.47-14.51c7.27-0.32,14.54-0.82,21.81-0.95c10.15-0.17,16.71,5.24,16.93,13.59
		c0.22,8.41-5.95,13.43-16.23,14.32c-44.61,3.83-89.2,7.84-133.78,11.96c-5.76,0.53-11.41,2.19-17.14,3.18
		c-10.93,1.89-18.17-2.1-19.56-10.68C602.32,188.59,607.47,182.76,618.29,180.66z M776.08,290.23c-11.89,0.91-23.93,0.3-35.76,1.64
		c-39.58,4.47-79.09,9.51-118.62,14.33c-1.16,0.14-2.31,0.27-2.87,0.33c-8.43,0.17-14.34-4.74-15.16-12.08
		c-0.88-7.86,3.41-14.01,11.94-15.59c17.16-3.17,34.31-6.89,51.64-8.49c35.35-3.27,70.81-5.27,106.22-7.83
		c6.62-0.48,12.23,1.17,15.48,7.41C793.78,279.26,787.61,289.35,776.08,290.23z M566.21,416.34c-6.79,3.64-14.52,5.52-24.03,8.95
		c-3.67-3.62-8.82-6.77-11.01-11.34c-2.84-5.93-0.74-12.75,5.54-15.66c6.74-3.13,14.16-5.31,21.51-6.42
		c6.35-0.96,10.95,3.03,13.08,9.27C573.47,407.5,571.68,413.4,566.21,416.34z M536.64,300.13c6.74-3.11,14.2-5.23,21.56-6.24
		c6.8-0.93,12.67,3.42,12.97,10.1c0.22,4.94-2.15,12.06-5.86,14.63c-5.93,4.11-13.92,5.25-23.23,8.39
		c-3.54-3.47-8.71-6.62-10.93-11.2C528.29,309.89,530.36,303.02,536.64,300.13z M558.45,223.8c-9.03,2.08-18.66,7.6-26.04-3.12
		c-4.74-6.88-2.17-16.54,5.72-19.82c6.09-2.53,12.68-4.32,19.22-5.23c7.91-1.1,14.84,5.8,14.86,13.6
		C571.61,217.86,566.21,222.02,558.45,223.8z M615.22,376.63c26.69-4.4,53.41-8.79,80.25-12.1c19.63-2.42,39.47-3.14,59.21-4.61
		c0.01,0.15,0.02,0.29,0.03,0.44c6.69-0.33,13.38-0.91,20.08-0.93c9.34-0.03,15.74,5.85,15.72,13.95
		c-0.02,7.88-5.79,13.46-14.89,13.82c-52.13,2.08-104.06,5.93-155.27,16.66c-8.03,1.68-15-3.22-16.49-10.59
		C602.2,385.12,606.4,378.09,615.22,376.63z"/>
	<path class="st0" d="M469.35,748.48c-34.21-18.2-70.76-29.69-108.46-37.92c-62.68-13.69-126.32-17.5-190.22-18.8
		c-5.23-0.11-10.6-0.01-15.65-1.14c-20.88-4.69-32.58-21.17-32.59-45.5c-0.03-167.97-0.01-335.95-0.01-503.92c0-3.63,0-7.25,0-11.31
		c-9.98,0-18.42,0-26.86,0c-18.65,0.01-23.82,5.17-23.82,23.94c-0.01,184.89-0.01,369.78,0,554.67c0,18.71,5.03,23.68,23.94,23.68
		c107.3,0.01,214.6,0,321.9,0c3.69,0,7.38,0,11.7,0c0,5.26-0.09,9.32,0.02,13.37c0.51,18.97,13.27,31.66,32.14,31.88
		c10.2,0.12,20.41,0.02,30.62,0.02c9.78,0,19.56,0,29.53,0c0-11.78,0-22.23,0-34.02c-4.27,2.1-7.39,3.54-10.43,5.13
		C497.21,755.87,483.28,755.88,469.35,748.48z"/>
	<path class="st0" d="M908.88,435.87c0-94.45,0-188.91-0.01-283.36c0-2.33,0.02-4.68-0.22-6.99c-0.85-8.3-5.76-14.23-13.57-14.95
		c-11.98-1.12-24.15-0.29-36.19-0.29c0,103.12,0,205.27,0,306.81c16.79,1.91,32.86,3.73,50,5.68
		C908.88,441.05,908.88,438.46,908.88,435.87z"/>
	<path class="st0" d="M349.01,464.56c-18.57-22.77-37.36-45.33-54.61-63.22c28.3-0.9,46.21-15.27,48.41-37.82h23.88v-11.05H342.6
		c-1.33-10.17-5.98-17.46-12.38-22.54h36.48v-11.05h-93.08v14.37h15.7c19.23,0,30.95,6.41,34.05,19.23h-49.75v11.05h50.4
		c-1.55,15.27-14.37,25.22-38.24,25.22h-12.16v13.7c20.78,22.11,36.92,41.35,54.17,62.12H349.01z"/>
</g>
</svg>
