<?xml version="1.0" encoding="utf-8"?>
<!-- Generator: Adobe Illustrator 24.3.0, SVG Export Plug-In . SVG Version: 6.00 Build 0)  -->
<svg version="1.1" id="Layer_1" xmlns="http://www.w3.org/2000/svg" xmlns:xlink="http://www.w3.org/1999/xlink" x="0px" y="0px"
	 viewBox="0 0 1000 1000" style="enable-background:new 0 0 1000 1000;" xml:space="preserve">
<style type="text/css">
	.st0{fill:#182D57;}
</style>
<path class="st0" d="M867.34,83.39c-2.48-15.82-13.09-24.37-26.92-30.02c-194.44,0-388.89,0-583.33,0
	c-15.29,5.76-25.95,15.27-27.54,33.11c213.08,0,425.33,0,637.81,0C867.36,85.07,867.47,84.21,867.34,83.39z"/>
<path class="st0" d="M271.08,427.15c185.09,0.01,370.18,0.01,555.27,0c27.85,0,41.65-13.82,41.66-41.73
	c0.02-88.77,0.01-177.55,0.01-266.32c0-3.11,0-6.22,0-9.83c-213.19,0-425.41,0-638.81,0c0,3.58,0,6.44,0,9.29
	c0,89.06-0.01,178.13,0.01,267.19C229.21,413.61,242.91,427.15,271.08,427.15z M779.09,388.63c-48.18,0-95.62,0-143.83,0
	c0-6.98,0-13.68,0-20.89c47.94,0,95.62,0,143.83,0C779.09,374.64,779.09,381.19,779.09,388.63z M635.01,334.72
	c0-6.92,0-13.41,0-20.41c48.17,0,95.83,0,144.05,0c0,6.76,0,13.28,0,20.41C731.38,334.72,683.73,334.72,635.01,334.72z
	 M305.52,202.56c37.08-21.52,75.19-20.23,112.71,0.48c3.14,1.74,6.9,3.33,10.38,3.35c63.26,0.2,126.53,0.14,189.8,0.12
	c1.4,0,2.81-0.27,4.7-0.47c0-11.42,0-22.6,0-34.56c-93.27,0-186.03,0-279.33,0c0-7.3,0-13.83,0-20.97c145.58,0,290.81,0,436.67,0
	c0,6.67,0,13.18,0,20.77c-44.68,0-89.46,0-134.74,0c0,11.98,0,22.88,0,34.88c44.8,0,89.59,0,134.87,0c0,7.34,0,13.63,0,21.01
	c-44.57,0-89.34,0-134.74,0c0,12.18,0,23.27,0,35.13c44.8,0,89.37,0,134.59,0c0,7.23,0,13.71,0,21.35c-102.26,0-204.5,0-306.88,0
	c-0.71,11.7-0.58,22.38-2.12,32.83c-8.51,57.92-59.42,97.56-119.97,93.85c-55.02-3.37-100.7-51.8-101.66-108.23
	C249.05,258.23,267.89,224.4,305.52,202.56z"/>
<path class="st0" d="M867.98,487.61c-0.02-24.65-14.47-39.02-38.96-39.02c-186.89-0.03-373.77-0.02-560.66,0
	c-24.96,0-39.12,14.34-39.15,39.57c-0.04,33.66-0.02,67.33,0,100.99c0,2.45,0.2,4.9,0.37,8.78c2.94-3.23,4.88-5.26,6.7-7.39
	c16.24-18.95,32.4-37.96,48.7-56.85c18.74-21.72,48.71-24.68,70.96-7.14c21.15,16.67,24.14,43.85,7.35,67.41
	c-18.51,25.99-37.14,51.89-55.48,77.99c-1.99,2.83-3.78,6.92-3.37,10.14c3.73,28.98,4.61,57.81-3.23,87.1
	c189.48,0,377.66,0,566.32,0c0.18-3.12,0.45-5.66,0.45-8.21C868.02,669.85,868.06,578.73,867.98,487.61z M732.63,545.46
	c-0.43,13.56-0.14,27.14-0.14,41.7c-13.1,0-25.43,0-38.28,0c0,32.48,0,63.96,0,96.78c9.05,0,17.35,0,26.03,0
	c0,18.29,0,35.81,0,53.82c-103.63,0-206.75,0-310.34,0c0-18.07,0-35.63,0-53.84c8.82,0,17.14,0,26.1,0c0-32.33,0-64.02,0-96.75
	c-12.57,0-24.89,0-37.94,0c0-15.48-0.16-29.94,0.2-44.38c0.04-1.79,2.53-4.45,4.44-5.12c53.53-18.86,107.11-37.57,160.76-56.08
	c2.68-0.92,6.3-0.66,9.02,0.31c51.28,18.28,102.47,36.8,153.74,55.12C730.53,538.56,732.79,540.28,732.63,545.46z"/>
<path class="st0" d="M280.59,843.66c-19.96-1.22-38.89-0.21-55.62,12.26c-1.3,0.97-3.12,1.25-5.17,2.03
	c-2.94-6.31-5.7-12.26-8.79-18.9c3.38-1.64,6.15-3.07,8.99-4.35c26.51-11.85,44.25-31.86,55.53-58.37
	c13.3-31.29,10.81-63.45,6.92-95.92c-0.55-4.6,0.65-10.47,3.25-14.21c20.02-28.82,40.66-57.21,60.95-85.84
	c8.29-11.69,8.1-23.33,0.01-32.77c-11.42-13.33-32.01-14.1-43.86-1.14c-10.17,11.13-19.35,23.19-29.65,34.19
	c-24.55,26.23-43.53,57.54-75.25,77.37c-10.71,6.69-16.92,20.6-25.67,31.83c-4.7-1.78-10.88-4.11-17.46-6.59
	c9.04-23.8,24-41.65,45.63-53.58c5.58-3.08,7.63-6.66,7.58-13.01c-0.28-35.11-0.12-70.22-0.16-105.33c0-2.44-0.33-4.89-0.51-7.33
	c-0.67-0.4-1.34-0.8-2.01-1.2c-1.7,2.3-3.21,4.77-5.12,6.87c-19.16,21.01-38.21,42.12-57.68,62.85c-6.41,6.83-9.04,14.22-9.02,23.5
	c0.18,90.24,0.1,180.49,0.12,270.73c0,3.06,0.25,6.12,0.39,9.07c67.52,0,134.07,0,200.63,0c0.54-11.04,1.04-21.34,1.56-31.91
	C318.28,843.9,299.38,844.8,280.59,843.66z"/>
<path class="st0" d="M302.67,791.45c-2.32,0-4.71-0.33-6.94,0.13c-1.76,0.36-3.97,1.3-4.85,2.69c-5.52,8.79-10.72,17.77-16.79,27.98
	c3.97,0,7.31,0,10.65,0c180.4,0,360.8,0.01,541.2-0.04c4.62,0,9.32-0.13,13.85-0.95c14.66-2.65,25.94-15.18,26.55-29.82
	c-3.45,0-6.87,0-10.3,0C671.59,791.45,487.13,791.45,302.67,791.45z"/>
<path class="st0" d="M134.28,944.45c67.08,0,133.6,0,200.57,0c0-15.39,0-30.34,0-46.21c-67.14,0-133.66,0-200.57,0
	C134.28,913.87,134.28,929.03,134.28,944.45z M300.39,908.17c5.22,0,9.98,0,15.32,0c0,6.57,0,13.07,0,20.25c-4.86,0-9.82,0-15.32,0
	C300.39,921.66,300.39,915.2,300.39,908.17z"/>
<path class="st0" d="M360.96,389.44c49.99-0.01,90.31-40.28,90.16-90.07c-0.15-50.1-40.36-90.41-90.03-90.24
	c-50.07,0.17-90.39,40.4-90.25,90.05C270.99,349.06,311.31,389.45,360.96,389.44z M328.66,300.76h9.62
	c18.9,0,29.04-7.87,30.26-19.94h-39.89v-8.75h39.37c-2.45-10.15-11.72-15.22-26.95-15.22h-12.42v-11.38h73.66v8.75h-28.87
	c5.07,4.02,8.75,9.8,9.8,17.85h19.07v8.75h-18.9c-1.75,17.84-15.92,29.22-38.31,29.92c13.65,14.17,28.52,32.02,43.21,50.04h-16.8
	c-13.65-16.45-26.42-31.67-42.86-49.16V300.76z"/>
<path class="st0" d="M474.81,262.75c46.65-0.22,93.3-0.11,139.95-0.15c2.75,0,5.5-0.33,8.32-0.52c0-11.77,0-22.67,0-33.91
	c-58.29,0-116.04,0-174.17,0c5.27,9.51,10.89,18.21,14.98,27.59C466.31,261.32,469.13,262.78,474.81,262.75z"/>
<path class="st0" d="M704.12,551.68c-43.69-15.33-87.2-31.17-130.89-46.5c-3.68-1.29-8.6-1.19-12.32,0.09
	c-44.62,15.3-89.06,31.11-133.7,46.36c-7.41,2.53-9.59,6.14-6.93,13.52c96.58,0,193.03,0,289.92,0
	C711.97,558.21,711.11,554.14,704.12,551.68z"/>
<path class="st0" d="M458.42,587.81c0,32.13,0,63.59,0,95.27c19.11,0,37.72,0,56.11,0c0-32.19,0-63.67,0-95.27
	C495.56,587.81,477.2,587.81,458.42,587.81z"/>
<path class="st0" d="M537.47,587.39c0,32.49,0,64.11,0,95.8c19.03,0,37.41,0,55.58,0c0-32.25,0-63.91,0-95.8
	C574.3,587.39,556.38,587.39,537.47,587.39z"/>
<path class="st0" d="M616.19,587.48c0,32.46,0,64.12,0,95.81c18.8,0,36.94,0,55.26,0c0-32.15,0-63.81,0-95.81
	C652.82,587.48,634.91,587.48,616.19,587.48z"/>
<path class="st0" d="M431.35,716.48c89.79,0,178.66,0,267.54,0c0-3.8,0-7.08,0-10.45c-89.48,0-178.34,0-267.54,0
	C431.35,709.69,431.35,712.8,431.35,716.48z"/>
</svg>
