<?xml version="1.0" encoding="utf-8"?>
<!-- Generator: Adobe Illustrator 24.3.0, SVG Export Plug-In . SVG Version: 6.00 Build 0)  -->
<svg version="1.1" id="Layer_1" xmlns="http://www.w3.org/2000/svg" xmlns:xlink="http://www.w3.org/1999/xlink" x="0px" y="0px"
	 viewBox="0 0 1000 1000" style="enable-background:new 0 0 1000 1000;" xml:space="preserve">
<style type="text/css">
	.st0{fill:#182D57;}
</style>
<g>
	<path class="st0" d="M952.77,442.63c-0.48,0.73-1.07,1.42-1.42,2.21c-6.09,13.82-17.09,20.49-29.65,17.92
		c-13.59-2.78-21.72-12.91-21.88-27.92c-0.49-47.75-8.68-94.07-25.56-138.78c-19.57-51.85-48.77-97.61-87.51-137.23
		c-6.59-6.74-11.98-13.93-11.37-23.86c0.67-10.9,5.91-19.08,16.17-23.24c11.29-4.58,22.07-2.47,29.73,6.7
		c20.49,24.55,42.25,48.39,59.89,74.91c41.63,62.57,64.17,132.23,70.05,207.22c0.22,2.87,1.01,5.69,1.54,8.53
		C952.77,420.27,952.77,431.45,952.77,442.63z"/>
	<path class="st0" d="M500.99,775.25c-82.35,0-164.69,0.01-247.04-0.03c-4.4,0-8.87,0.03-13.19-0.68
		c-17.67-2.89-26.58-21.72-18.11-38.92c15.17-30.83,30.42-61.63,46.22-92.13c5.02-9.7,7.32-19.29,7.25-30.23
		c-0.3-43.81-1.97-87.76,0.67-131.43c5.42-89.73,51.11-153.55,131.37-192.97c6.72-3.3,10.62-6.78,12.57-14.77
		c9.1-37.29,43.94-63.31,81.83-62.35c38.5,0.98,71.16,28.02,79.77,65.46c0.82,3.56,4.04,7.82,7.28,9.38
		c87.81,42.17,134.09,111.42,136.09,209.13c0.85,41.74,0.03,83.52,0.31,125.28c0.03,5.05,1.34,10.52,3.57,15.07
		c15.62,31.91,30.7,64.14,47.84,95.23c11.81,21.43,0.56,44.61-27.62,44.28C666.86,774.63,583.92,775.25,500.99,775.25z"/>
	<path class="st0" d="M49.05,424C53.86,306,96.69,204.26,179.21,119.51c12.13-12.45,27.98-13.3,39.2-2.53
		c11.02,10.58,10.93,26.97-1.12,39.29c-44.73,45.73-77.31,98.72-96.7,159.74c-12.28,38.63-18.31,78.24-18.59,118.74
		c-0.08,11.99-4.89,21.11-15.96,26.14c-16.76,7.62-35.76-4.16-36.94-22.78C48.8,433.42,49.05,428.7,49.05,424z"/>
	<path class="st0" d="M162.37,420.71c5.33-85.66,37.49-159.38,97.13-221.13c7.84-8.12,17.01-11.57,27.92-8.68
		c9.9,2.63,16.17,9.44,18.55,19.38c2.59,10.8-1.67,19.45-9.13,27.05c-23.5,23.93-42.2,51.16-56.1,81.72
		c-16.17,35.54-24.14,72.9-25.37,111.82c-0.14,4.39-0.08,8.93-1.17,13.12c-3.15,12.04-15.42,20.45-27.29,19.27
		c-13.54-1.35-23.68-11.89-24.49-25.8C162.1,431.89,162.37,426.29,162.37,420.71z"/>
	<path class="st0" d="M839.34,421.36c0,5.59,0.36,11.2-0.07,16.75c-1.14,14.57-12.98,25.53-26.84,25.25
		c-14.08-0.29-25.46-11.33-25.8-26.09c-0.81-34.35-6.03-67.84-18.12-100.12c-14.12-37.7-35.26-70.95-63.42-99.69
		c-7.47-7.62-11.85-16.19-9.37-26.99c2.29-9.94,8.51-16.83,18.4-19.52c10.49-2.85,19.64-0.03,27.34,7.83
		c27.63,28.17,50.04,59.97,66.62,95.81C826.7,334.82,836.89,377.1,839.34,421.36z"/>
	<path class="st0" d="M385.97,828.82c77.36,0,152.63,0,229.7,0c-28.4,37.7-64.53,58.22-110.09,59.62
		C456.36,889.95,417.15,869.4,385.97,828.82z"/>
</g>
</svg>
