<?xml version="1.0" encoding="utf-8"?>
<!-- Generator: Adobe Illustrator 24.3.0, SVG Export Plug-In . SVG Version: 6.00 Build 0)  -->
<svg version="1.1" id="Layer_1" xmlns="http://www.w3.org/2000/svg" xmlns:xlink="http://www.w3.org/1999/xlink" x="0px" y="0px"
	 viewBox="0 0 1000 1000" style="enable-background:new 0 0 1000 1000;" xml:space="preserve">
<style type="text/css">
	.st0{fill:#182D57;}
</style>
<g>
	<path class="st0" d="M33.62,248.21c1.12-5.89,1.87-11.87,3.41-17.64c7.7-28.95,33.21-49.4,63.17-49.62
		c52.73-0.39,105.47-0.17,158.21-0.17c171.24-0.01,342.49-0.04,513.73,0.02c36.38,0.01,63.2,21.29,69.8,55.17
		c0.86,4.42,1.04,9.03,1.05,13.56c0.06,97.31,0.05,194.62,0.03,291.92c0,2.39-0.2,4.79-0.34,7.87c-55.01,2.4-98.9,25.35-127.8,72.53
		c-28.72,46.88-29.35,96.13-6.37,147.36c-4.2,0-7.37,0-10.54,0c-196.7,0-393.41,0.02-590.11-0.02
		c-37.14-0.01-63.71-19.43-71.53-52.05c-1.12-4.68-1.81-9.46-2.7-14.2C33.62,551.36,33.62,399.79,33.62,248.21z M368,713.98
		c12.93,0,24.42,0.1,35.91-0.02c28.24-0.28,47.32-19.16,47.53-47.42c0.22-30.61,0.29-61.22-0.03-91.83
		c-0.26-24.99-11.54-43.31-34.43-54.18c-25.69-12.2-51.31-24.55-76.94-36.89c-7.87-3.79-9.22-11.68-2.79-17.86
		c28.66-27.53,43.47-61.59,46.56-100.72c4.7-59.56-26.09-122.41-104.1-129.02c-55.1-4.67-101.78,23.12-118.86,72.76
		c-18.58,53.99-0.92,121.1,41.8,158.84c10.31,9.11,9.97,11.49-2.61,17.5c-25.11,12-50.32,23.82-75.33,36.03
		c-20.54,10.02-32.25,26.67-32.74,49.56c-0.7,33.02-0.39,66.07-0.11,99.1c0.17,19.89,13.31,38.29,32.64,41.87
		c16.33,3.02,33.38,2.15,50.79,3.03c0-4.81,0-7.49,0-10.18c0.02-20.61-0.16-41.22,0.13-61.83c0.13-9.15,6.41-14.89,14.98-14.75
		c8.23,0.13,13.88,5.59,14.43,14.38c0.32,5.13,0.14,10.3,0.14,15.45c0.01,18.4,0,36.81,0,55.53c44.75,0,88.48,0,132.81,0
		c0-3.94,0-7.23,0-10.53c0-19.09-0.14-38.19,0.06-57.28c0.13-12,6.84-18.63,17.03-17.45c8.33,0.97,13.06,7.12,13.11,17.73
		C368.08,668.18,368,690.54,368,713.98z M635.51,533.63c44.53,0,89.06,0.07,133.59-0.05c10.14-0.03,16.98-6.49,16.87-15.17
		c-0.11-8.38-6.52-14.26-16.31-14.9c-1.81-0.12-3.63-0.05-5.45-0.05c-85.73,0-171.46-0.01-257.19,0.03c-3.31,0-6.7,0.06-9.93,0.7
		c-7.58,1.51-11.64,6.8-11.78,14.12c-0.15,7.85,4.36,13.1,12.1,14.89c2.89,0.67,6.02,0.42,9.04,0.42
		C549.48,533.65,592.49,533.64,635.51,533.63z M635.15,359.1c42.71,0,85.42,0,128.13,0c15.19,0,22.51-4.79,22.67-14.84
		c0.16-10.15-7.23-15.22-22.29-15.22c-85.42-0.01-170.84-0.01-256.26,0.02c-3.32,0-6.69,0.02-9.95,0.56
		c-7.22,1.19-11.27,6-12.04,12.93c-0.78,7,2.42,12.56,9.15,15.08c3.28,1.23,7.08,1.41,10.65,1.42
		C548.51,359.13,591.83,359.1,635.15,359.1z M595.66,620.94c30.87,0,61.75,0.08,92.62-0.04c10.48-0.04,17.16-5.84,17.5-14.52
		c0.35-9.05-6.43-15.15-17.37-15.58c-1.81-0.07-3.63-0.02-5.45-0.02c-58.42,0-116.84-0.01-175.26,0.03c-3.61,0-7.32-0.03-10.82,0.74
		c-8.48,1.87-13.31,9.78-11.09,17.81c2.41,8.72,8.83,11.61,17.24,11.6C533.91,620.92,564.79,620.94,595.66,620.94z M595.01,446.41
		c29.66,0,59.32,0,88.98,0c2.42,0,4.86,0.12,7.26-0.12c8.45-0.85,14.38-6.91,14.54-14.67c0.16-7.83-5.52-14-14.02-15.04
		c-2.39-0.29-4.83-0.21-7.25-0.22c-59.32-0.01-118.64-0.02-177.97,0.02c-3.31,0-6.7,0.05-9.92,0.72
		c-7.18,1.51-11.89,6.85-10.97,13.46c0.71,5.11,5.05,10.28,9.04,14.13c2.08,2.01,6.86,1.64,10.42,1.65
		C535.08,446.45,565.05,446.41,595.01,446.41z"/>
	<path class="st0" d="M963.73,701.03c-0.37,67.18-54.77,120.65-122.29,120.2c-65.88-0.44-119.23-55.06-118.86-121.7
		c0.37-66.53,55.18-120.54,121.71-119.94C910.27,580.18,964.1,634.91,963.73,701.03z M819.8,720.77
		c-8.35-8.67-16.37-17.31-24.74-25.6c-8.15-8.07-16.58-8.61-23.14-2.01c-6.31,6.35-5.57,15.38,2.19,23.23
		c11.29,11.42,22.66,22.76,34.13,34c9.24,9.04,16.6,9.01,25.82-0.12c11.84-11.73,23.52-23.61,35.25-35.45
		c14.93-15.06,30.01-29.99,44.71-45.27c6.5-6.76,6.22-15.17,0.25-21.15c-5.69-5.69-14.53-5.65-21.28,0.24
		c-2.28,1.99-4.31,4.26-6.46,6.38C864.76,676.49,842.98,697.93,819.8,720.77z"/>
	<path class="st0" d="M194.01,405.2c21.99-13.81,35.6-33.39,45.25-57.52c19.92,20.02,44.07,22.11,69.47,21.34
		c8.02-0.24,17.26,1.54,24,5.6c12.79,7.71,15.35,21.54,8.73,35.18c-12.54,25.84-30.99,45.69-59.24,53.65
		c-8.48,2.39-18.83,2.32-27.29-0.16C225.35,454.63,206.91,433.31,194.01,405.2z"/>
	<path class="st0" d="M354.2,350.28c-15.56-12.59-32.37-12.16-48.96-11.04c-25.81,1.73-45.36-7.89-59.02-29.76
		c-4.06-6.49-9.72-10.2-17.56-8.26c-7.39,1.83-10.3,7.49-11.67,14.62c-3.42,17.75-9.68,34.36-21.24,48.59
		c-2.78,3.42-5.58,6.81-9.46,9.38c-5.38-35.05-2.03-67.77,27.17-90.24c30.99-23.85,66.37-23.85,100.4-6.96
		C342.43,290.79,352.14,317.66,354.2,350.28z"/>
	<path class="st0" d="M239.68,490.17c21.48,8.46,42.33,7.51,63.45-2.29c1.78,16.48,1.14,30.89-12.67,40.98
		c-10.73,7.83-22.47,8.81-34.12,2.43C240.47,522.6,237.71,507.97,239.68,490.17z"/>
</g>
</svg>
