<?xml version="1.0" encoding="utf-8"?>
<!-- Generator: Adobe Illustrator 24.3.0, SVG Export Plug-In . SVG Version: 6.00 Build 0)  -->
<svg version="1.1" id="Layer_1" xmlns="http://www.w3.org/2000/svg" xmlns:xlink="http://www.w3.org/1999/xlink" x="0px" y="0px"
	 viewBox="0 0 1000 1000" style="enable-background:new 0 0 1000 1000;" xml:space="preserve">
<style type="text/css">
	.st0{fill:#182D57;}
</style>
<path class="st0" d="M945.19,463.81c-10.93-16.93-29.97-18.58-43.76-3.7c-44.25,47.73-88.57,95.4-132.64,143.3
	c-14.49,15.75-31.94,23.31-53.34,23.2c-53.54-0.26-107.08-0.08-160.62-0.1c-2.43,0-4.94,0.2-7.27-0.3
	c-6.11-1.32-10.65-5.56-9.06-11.47c1.06-3.93,6.03-7.22,9.91-9.8c1.91-1.27,5.33-0.31,8.07-0.32c52.63-0.01,105.26,0.09,157.88-0.12
	c6.59-0.03,13.49-0.7,19.69-2.76c18.71-6.21,29.48-25.56,26.32-45.76c-2.95-18.84-19.88-33.3-39.95-33.35
	c-62.36-0.16-124.73-0.19-187.09,0.08c-9.19,0.04-17.25-1.64-24.87-6.85c-26.82-18.3-56.54-25.74-88.95-24.11
	c-16.99,0.86-34.07,0.48-51.1,0.08c-36.72-0.85-67.48,12.07-93.39,38.05c-27.7,27.78-56.05,54.92-84.2,82.26
	c-2.14,2.08-4.99,3.43-9.07,6.16C237,672.7,290.27,725.14,345.05,779.06c1.04-1.56,1.98-3.11,3.05-4.56
	c21.66-29.45,50.88-40.29,87.15-39.82c88.21,1.16,176.44,0,264.66,0.53c45.94,0.28,81.55-18.26,108.37-54.92
	c5.03-6.87,10.03-13.76,15.03-20.65c39.8-54.88,79.62-109.76,119.38-164.67C951.19,483.22,951.81,474.07,945.19,463.81z"/>
<path class="st0" d="M697.55,426.72c93.86-0.1,170.05-76.29,169.98-169.98c-0.07-93.55-76.68-170.03-170.21-169.93
	c-93.71,0.1-170.03,76.56-169.84,170.16C527.67,350.98,603.65,426.81,697.55,426.72z M640.13,256.85h16.99
	c33.36,0,51.28-13.9,53.44-35.22h-70.44v-15.45h69.51c-4.32-17.92-20.7-26.88-47.57-26.88h-21.93v-20.08h130.06v15.45h-50.97
	c8.96,7.11,15.45,17.3,17.3,31.51h33.67v15.45h-33.36c-3.09,31.51-28.11,51.59-67.66,52.83c24.1,25.02,50.36,56.53,76.31,88.35
	h-29.66c-24.1-29.04-46.65-55.92-75.69-86.81V256.85z"/>
<path class="st0" d="M50.82,689.74c74.12,74.1,148.68,148.66,222.61,222.58c28.12-28.09,56.87-56.81,85.08-85
	c-74.03-74.04-148.57-148.59-222.58-222.61C107.8,632.82,79.03,661.57,50.82,689.74z"/>
<path class="st0" d="M363.38,291.01c3.65,0.1,7.38-0.41,10.92,0.21c2.21,0.39,5.23,1.93,5.99,3.74
	c5.15,12.26,9.79,24.74,15.68,39.93c-2.13,1.6-6.14,3.97-9.35,7.15c-7.66,7.6-7.57,13.24,0.07,21.06
	c8.93,9.14,17.97,18.16,27.09,27.1c7.86,7.7,13.97,7.74,21.77-0.44c3.07-3.22,4.89-7.63,6.08-9.56
	c13.55,5.8,22.71,11.08,32.58,13.57c9.97,2.52,12.68,7.23,12,16.98c-0.82,11.66,3.43,15.33,14.94,15.43
	c11.86,0.1,23.72,0.05,35.59,0.02c14.57-0.03,17.72-2.98,17.43-17.68c-0.13-6.8-0.29-12.92,7.23-13.63
	c-10.58-14.99-21.51-29.88-31.7-45.26c-2.99-4.51-5.49-6.62-11.22-6.8c-44.67-1.43-78.4-32.64-84.05-77.17
	c-5.08-39.99,21.48-79.89,61.32-91.28c10.23-2.92,22.96-1.31,30.89-6.93c8.5-6.02,12.32-18.38,18.86-27.49
	c5.18-7.21,11.39-13.69,17.93-21.44c-12.05-0.75-8.96-8.79-9.12-15.01c-0.28-10.94-3.19-15.51-12.05-15.77
	c-14.89-0.44-29.81-0.33-44.7,0c-7.08,0.16-11.11,4.39-11.5,11.6c-0.18,3.34-0.37,6.72-0.05,10.03c0.51,5.19-1.58,7.39-6.66,8.8
	c-7.27,2.02-14.86,4.26-21.11,8.27c-9.82,6.31-16.92,5.9-24.21-3.75c-4.97-6.58-12.12-6.92-18.29-0.98
	c-10.52,10.12-20.83,20.46-30.96,30.96c-5.22,5.41-5.07,11.44-0.16,17.16c1.78,2.07,3.63,4.16,5.79,5.8
	c4.9,3.73,5.71,7.33,2.32,13.03c-4,6.72-7.9,14.05-9.4,21.6c-2.12,10.66-7.4,13.33-17.54,12.57c-10.05-0.76-14.65,3.36-14.86,11.84
	c-0.38,14.89-0.31,29.8,0,44.69C351.13,287.02,355.82,290.81,363.38,291.01z"/>
</svg>
