<?xml version="1.0" encoding="utf-8"?>
<!-- Generator: Adobe Illustrator 24.3.0, SVG Export Plug-In . SVG Version: 6.00 Build 0)  -->
<svg version="1.1" id="Layer_1" xmlns="http://www.w3.org/2000/svg" xmlns:xlink="http://www.w3.org/1999/xlink" x="0px" y="0px"
	 viewBox="0 0 1000 1000" style="enable-background:new 0 0 1000 1000;" xml:space="preserve">
<style type="text/css">
	.st0{fill:#182D57;}
</style>
<g>
	<path class="st0" d="M404.78,732.16c-4.4,0-7.67,0-10.95,0c-61.15,0-122.3,0.21-183.45-0.08c-48.11-0.23-86.71-32.85-95.33-80.01
		c-0.9-4.91-0.88-9.99-1.39-16.3c16.59,0,32.16,0.03,47.73,0c154.53-0.29,309.06-0.58,463.59-0.88c3.61-0.01,7.25,0.12,10.84-0.22
		c10.5-0.99,17.55-8.98,17.37-19.42c-0.18-9.93-7.33-17.68-17.35-18.57c-3.29-0.29-6.62-0.13-9.94-0.12
		c-166.28,0.17-332.56,0.34-498.85,0.51c-3.9,0-7.81,0-12.63,0c-0.25-2.91-0.65-5.48-0.65-8.04
		c-0.03-106.02-0.25-212.04,0.08-318.05c0.16-49.48,32.02-87.43,79.77-96.29c5.88-1.09,11.98-1.35,17.98-1.36
		c93.38-0.08,186.77-0.06,280.15-0.05c2.08,0,4.16,0.21,7.46,0.4c0,3.35,0,6.55,0,9.74c0,46.38-0.03,92.77,0.01,139.15
		c0.05,59.98,40.88,100.84,101.02,100.98c46.69,0.11,93.4-0.7,140.07,0.24c42.14,0.85,74-15.35,94.57-50.78
		c16.52,1.38,32.46,2.71,49.8,4.16c0,1.15,0,4.37,0,7.58c0,81.92,0.07,163.85-0.02,245.77c-0.07,61.15-40.84,101.63-102.18,101.65
		c-59.34,0.02-118.69,0-178.03,0c-3.27,0-6.54,0-10.75,0c0.63,23.33,9.79,41.7,26.57,56.4c1.68,1.47,5.06,1.3,7.67,1.38
		c11.43,0.34,23.06-0.75,34.26,0.96c31.44,4.79,51.32,31.38,48.6,63.43c-2.44,28.67-27.52,51.21-57.96,51.26
		c-102.42,0.16-204.84,0.08-307.26,0c-4.18,0-8.43-0.52-12.52-1.39c-29.68-6.31-48.29-32.4-45.4-63.41
		c2.57-27.54,27.09-49.93,55.72-50.72c8.13-0.23,16.3-0.54,24.39,0.06c7.01,0.52,11.89-1.92,16.41-7.08
		C396.72,768.76,404.17,752.55,404.78,732.16z M729.78,597.13c-6.01,0-12.05-0.31-18.04,0.07c-11.95,0.76-19.5,8.48-19.44,19.41
		c0.05,10.55,7.35,18.55,18.78,19.08c12.9,0.59,25.87,0.57,38.78,0.02c11.5-0.5,18.84-8.36,18.99-18.88
		c0.15-10.96-7.33-18.82-19.23-19.6C743.03,596.79,736.4,597.14,729.78,597.13z"/>
	<path class="st0" d="M808.74,319.43c-1.04,8.32-1.3,15.3-2.86,21.97c-5.79,24.63-28.08,43.31-53.46,43.54
		c-53.01,0.48-106.04,0.55-159.05,0c-30.53-0.32-54.95-24.95-55.44-56.64c-0.8-52.09-0.85-104.22,0.01-156.31
		c0.55-32.98,25.22-56.23,58.27-56.46c50-0.35,100.01-0.19,150.02-0.07c36.99,0.08,60.09,22.62,61.64,59.8
		c0.06,1.48,0.17,2.96,0.34,5.88c14.26-5.3,27.63-11.12,41.53-15.1c8.08-2.31,17.37-3.49,25.5-1.94
		c16.97,3.25,28.57,18.42,28.75,35.89c0.33,33.43,0.5,66.87-0.02,100.29c-0.42,26.69-25.93,43.99-51.55,35.35
		C837.92,330.75,823.72,325.03,808.74,319.43z"/>
</g>
</svg>
