<?xml version="1.0" encoding="utf-8"?>
<!-- Generator: Adobe Illustrator 24.3.0, SVG Export Plug-In . SVG Version: 6.00 Build 0)  -->
<svg version="1.1" id="Layer_1" xmlns="http://www.w3.org/2000/svg" xmlns:xlink="http://www.w3.org/1999/xlink" x="0px" y="0px"
	 viewBox="0 0 1000 1000" style="enable-background:new 0 0 1000 1000;" xml:space="preserve">
<style type="text/css">
	.st0{fill:#182D57;}
</style>
<g>
	<path class="st0" d="M108,935.13c-20.8-8.05-27.79-23.53-27.2-45.25c1-37.54,1.1-75.15,0.09-112.7
		c-1.68-62.84,24.59-112.48,70.39-153.05c49.51-43.86,108.54-68.4,172.53-81.44c86.4-17.6,171.81-12.97,255.77,14.57
		c2.13,0.7,4.2,1.55,9.03,5.23c-2.3,0.96-5,1.44-6.85,2.95c-106.91,87.42-122.01,250.27-9.67,357.02
		c4.86,4.62,10.47,8.46,15.72,12.67C427.88,935.13,267.94,935.13,108,935.13z"/>
	<path class="st0" d="M425.37,67.19c114.75,0.21,208,93.57,208.02,208.28c0.02,114.93-93.93,208.69-208.85,208.42
		c-115.01-0.26-208.36-94.2-207.95-209.26C216.99,159.98,310.59,66.98,425.37,67.19z"/>
	<path class="st0" d="M543.15,744.1c-0.19-103.67,82.76-186.98,186.39-187.21c102.3-0.23,188.66,85.55,188.59,187.32
		c-0.07,103.89-83.37,186.61-187.45,187.62C616.33,932.95,540.93,830.88,543.15,744.1z M751.26,768.21c27.21,0,53.29,0,79.5,0
		c0-14.31,0-27.47,0-41.64c-26.59,0-52.66,0-79.49,0c0-26.9,0-52.78,0-79.08c-13.01,0-25.24,0-38.39,0c0,26.63,0,52.74,0,79.5
		c-26.8,0-52.7,0-78.9,0c0,14.05,0,27.41,0,41.88c26.61,0,52.68,0,79.43,0c0,26.97,0,52.84,0,79.15c12.71,0,24.7,0,37.85,0
		C751.26,821.52,751.26,795.42,751.26,768.21z"/>
</g>
</svg>
