<?xml version="1.0" encoding="utf-8"?>
<!-- Generator: Adobe Illustrator 24.3.0, SVG Export Plug-In . SVG Version: 6.00 Build 0)  -->
<svg version="1.1" id="Layer_1" xmlns="http://www.w3.org/2000/svg" xmlns:xlink="http://www.w3.org/1999/xlink" x="0px" y="0px"
	 viewBox="0 0 1000 1000" style="enable-background:new 0 0 1000 1000;" xml:space="preserve">
<style type="text/css">
	.st0{fill:#182D57;}
</style>
<g>
	<path class="st0" d="M940.51,787.66c-1.73,8.64-3.19,17.34-5.25,25.9c-18.2,75.7-88.92,128.38-167.45,124.85
		c-77.52-3.48-143.5-62.81-154.92-139.3c-15.3-102.52,64.93-192.78,168.66-189.75c79.63,2.33,147.73,64.47,157.22,143.42
		c0.3,2.5,1.15,4.94,1.74,7.4C940.51,769.34,940.51,778.5,940.51,787.66z M756.86,755.14c-4.15,0-7.22,0-10.29,0
		c-14.3,0.01-28.61-0.26-42.9,0.11c-13.15,0.34-21.19,9.71-19.4,21.78c1.39,9.4,9.08,15.5,20.49,15.63
		c17.07,0.19,34.13,0.05,52.11,0.05c0,4.14,0,7.21,0,10.29c0.01,14.3-0.27,28.61,0.11,42.9c0.36,13.48,10.32,21.68,22.63,19.29
		c8.92-1.73,14.66-9.34,14.78-20.37c0.18-17.06,0.05-34.13,0.05-52.1c4.16,0,7.23,0,10.31,0c14.3-0.01,28.61,0.27,42.9-0.11
		c13.14-0.35,21.17-9.73,19.39-21.8c-1.38-9.39-9.09-15.48-20.49-15.6c-17.06-0.19-34.13-0.05-52.09-0.05c0-4.15,0-7.23,0-10.31
		c-0.02-14.59,0.27-29.18-0.17-43.76c-0.32-10.57-7.21-17.78-16.61-18.66c-9.96-0.93-17.95,4.77-20.1,14.67
		c-0.66,3.03-0.66,6.24-0.67,9.37C756.82,722.18,756.86,737.9,756.86,755.14z"/>
	<path class="st0" d="M595.15,865.05c-4.45,0-7.58,0-10.71,0c-135.94,0-271.88,0.01-407.81-0.05c-5.4,0-11.02,0.07-16.15-1.3
		c-26.93-7.22-35.07-38.89-14.97-61.49c8-9,18.39-16.47,28.9-22.52c38.5-22.15,80.78-34.46,123.59-44.99
		c11.92-2.93,23.99-5.33,36.09-7.4c18.17-3.12,33.31-11.66,46.17-24.55c19.52-19.56,32.8-43.06,43.46-68.99
		c-25.64-19.3-45.36-43.72-60.89-71.33c-10.91-19.39-20.01-39.8-30.11-59.65c-1.9-3.73-4.46-7.2-7.14-10.46
		c-20.72-25.24-29.83-53.76-23.74-86.22c2.11-11.24,8.14-19.62,22.46-19.21c-1.5-14.56-3.19-28.6-4.36-42.69
		c-2.55-30.63-2.59-61.22,4.9-91.28c10.83-43.42,37.13-75.52,76.36-95.5c66.96-34.09,135.17-34.12,201.55,1.27
		c53.17,28.35,78.25,75.69,79.63,134.96c0.65,27.89-2.79,55.88-4.38,83.82c-0.16,2.82-0.38,5.63-0.57,8.34
		c16.69,4.3,22.87,10.96,24.01,27.84c2.05,30.44-6.16,57.63-27.09,80.51c-2.43,2.65-4.21,6.07-5.66,9.4
		c-14.54,33.39-30.65,65.95-54.08,94.12c-10.74,12.91-23.12,24.44-36.33,38.24c5.39,10.3,11.91,22.22,17.8,34.43
		c1.36,2.82,1.9,7.32,0.6,9.95c-29.46,59.68-30.57,119.75-3.21,180.38C593.92,861.7,594.27,862.75,595.15,865.05z"/>
	<path class="st0" d="M290.11,615.36c11.21,29.2,22.23,60.44,64.01,64.01c-10.92,14.35-21.09,26.12-38.77,29.55
		c-47.26,9.19-93.22,22.67-136.65,43.94c-3.4,1.67-7.67,2.16-11.54,2.18c-27.47,0.18-54.94-0.02-82.41,0.16
		c-9.04,0.06-17.74-0.66-21.56-10.26c-3.93-9.89-1.69-19.76,5.56-27.01c6.35-6.35,14.1-11.71,22.05-15.99
		c22.56-12.12,46.86-19.65,71.94-24.46c13.11-2.51,24.01-8.65,30.95-19.68c7.56-12,13.64-24.96,19.83-37.76
		c0.9-1.85-0.3-6.44-1.99-7.57c-26.41-17.63-40.91-44.08-54.17-71.6c-3.06-6.34-6.87-12.38-10.85-18.2
		c-9.29-13.57-13.29-28.41-11.18-44.69c0.94-7.26,4.1-13.19,13.53-13.59c-0.85-7.83-1.78-15.41-2.48-23.01
		c-1.76-19.18-2.08-38.39,3.33-57.06c10.77-37.23,37.77-57.06,73.93-64.81c14.27-3.06,29.5-1.85,44.3-1.93
		c2.08-0.01,5.75,3.53,6.02,5.75c1.68,13.9,2.73,27.88,3.64,41.85c0.16,2.51-0.42,6.04-2.07,7.55
		c-17.89,16.3-20.76,37.7-19.57,59.82c1.54,28.64,10.21,54.74,30.23,76.54c5.41,5.89,8.06,14.33,11.86,21.67
		c7.49,14.45,14.66,29.07,22.49,43.34c2.34,4.26,2.35,7.24-0.87,10.57C310.19,594.46,300.74,604.31,290.11,615.36z"/>
	<path class="st0" d="M853.84,464.29c9,0.67,11.97,7.19,12.72,15.12c1.62,17.26-2.79,32.8-13.91,46.33
		c-2.13,2.6-3.89,5.58-5.41,8.59c-2.84,5.6-5.13,11.49-8.09,17.01c-4.46,8.29-7.49,19.48-14.54,23.62
		c-6.17,3.63-17.05-0.77-25.85-1.6c-35.93-3.37-70.71,0.93-103.9,15.71c-3.61,1.61-7.08,4.11-10.15-1.03
		c-2.58-4.33-7.72-7.07-3.6-13.98c7.45-12.48,14.08-25.5,20.23-38.68c6.67-14.31,15.22-27.15,24.5-39.96
		c16.12-22.24,21.16-48.44,19.87-75.62c-0.86-18.09-5.37-35.02-20.07-47.57c-1.33-1.14-1.77-4.06-1.62-6.09
		c1.03-14.53,2.15-29.07,3.74-43.54c0.21-1.9,3.13-4.8,5.05-5.03c28.87-3.37,56.43,0.36,81.49,16.29
		c28.3,17.98,40.92,44.72,41.67,77.27C856.37,428.49,854.65,445.9,853.84,464.29z"/>
</g>
</svg>
