<?xml version="1.0" encoding="utf-8"?>
<!-- Generator: Adobe Illustrator 24.3.0, SVG Export Plug-In . SVG Version: 6.00 Build 0)  -->
<svg version="1.1" id="Layer_1" xmlns="http://www.w3.org/2000/svg" xmlns:xlink="http://www.w3.org/1999/xlink" x="0px" y="0px"
	 viewBox="0 0 1000 1000" style="enable-background:new 0 0 1000 1000;" xml:space="preserve">
<style type="text/css">
	.st0{fill:#182D57;}
</style>
<g>
	<path class="st0" d="M233.36,196.01c28.22,0,55.87,0.04,83.52-0.01c26.28-0.05,41.22-14.99,41.29-41.33
		c0.07-27.66,0.02-55.32,0.02-84.34c3.82,0,7.04,0,10.26,0c145.38,0,290.76,0,436.14,0.01c17.84,0,22.55,4.8,22.55,22.91
		c0.01,174.3,0,348.6,0,522.9c0,3.29,0,6.58,0,8.25c-20.41,5.09-39.63,9.88-59.63,14.86c0-2.03,0-5.21,0-8.39
		c0-66.01,0.01-132.02-0.01-198.02c0-16.69-4.2-20.81-21.21-20.86c-10.34-0.03-20.68-0.07-31.02,0.01
		c-15.46,0.12-20.01,4.66-20.02,20.33c-0.04,80-0.15,160,0.17,240c0.03,8.01-2.14,12.57-9.34,16.43
		c-17.31,9.28-34.11,19.53-52.88,30.41c0-5.26,0-8.75,0-12.23c0-49.28,0.01-98.56-0.01-147.83c-0.01-17.92-3.95-21.77-22.11-21.77
		c-10.95,0-21.9-0.09-32.85,0.03c-12.05,0.13-17.27,5.23-17.31,17.21c-0.1,31.63-0.04,63.27-0.04,94.91c0,3.25,0,6.5,0,11.75
		c-20.39-5.66-39.39-10.7-58.17-16.49c-1.99-0.61-3.69-5.61-3.71-8.59c-0.25-35.89-0.15-71.79-0.17-107.68
		c-0.01-17.15-4.27-21.33-21.73-21.37c-11.25-0.02-22.51-0.2-33.76,0.07c-11.91,0.28-17.06,5.6-17.12,17.66
		c-0.12,27.38-0.04,54.75-0.04,82.13c0,3.31,0,6.62,0,11.23c-20.78-6.02-40.76-5.99-61.25,0.89c-0.32-2.88-0.63-5.11-0.81-7.36
		c-0.79-9.42-5.62-14.44-15.15-14.65c-13.68-0.3-27.37-0.28-41.06-0.03c-10.5,0.18-15.62,5.21-15.91,15.78
		c-0.34,12.46-0.34,24.95-0.02,37.41c0.13,5.18-1.42,8.36-6.1,10.9c-11.48,6.21-22.68,12.94-33.71,19.29
		c-6.22-6.95-12.32-13.56-18.09-20.44c-1.17-1.4-1.49-3.87-1.49-5.85c-0.05-151.48-0.03-302.97,0-454.45
		C232.61,198.79,232.95,197.93,233.36,196.01z M690.83,344.29c-0.99,1.47-1.38,2.3-1.99,2.91c-30.58,30.92-61.07,61.92-91.96,92.52
		c-2.18,2.16-7.7,2.8-10.93,1.79c-37.93-11.93-75.78-24.09-113.48-36.72c-9.1-3.05-15.97-1.71-23.47,4.2
		c-42.01,33.13-84.34,65.86-126.55,98.73c-1.68,1.3-3.5,2.52-4.86,4.12c-4.93,5.8-5.5,12.14-1.09,18.39
		c4.27,6.05,10.52,7.06,17.07,4.72c3.04-1.08,5.67-3.47,8.3-5.51c39.12-30.41,78.28-60.78,117.22-91.41
		c4.58-3.6,8.36-4.42,13.92-2.58c37.72,12.54,75.68,24.4,113.29,37.26c10.85,3.71,18.19,1.41,25.91-6.53
		c30.33-31.16,61.16-61.83,91.62-92.87c2.25-2.29,3.03-6.02,4.49-9.09c1.16,1.04,2.33,2.09,3.49,3.13
		c0.68,9.15,4.99,15.07,14.46,15.71c7.43,0.5,13.61-4.78,14.74-13.3c1.93-14.45,3.52-28.97,4.55-43.51
		c0.68-9.64-5.36-15.94-14.86-15.45c-15.17,0.79-30.32,2.2-45.41,3.89c-7.22,0.8-11.37,5.86-11.96,12.96
		c-0.59,7.1,2.79,12.31,9.68,14.76C685.27,343.23,687.69,343.56,690.83,344.29z M566.19,305.48c31.58,0,63.16,0.03,94.75-0.02
		c11.92-0.02,18.95-5.78,18.64-15.06c-0.3-8.96-6.99-14.11-18.63-14.11c-62.86-0.03-125.72-0.03-188.58,0
		c-11.6,0.01-18.37,5.2-18.68,14.11c-0.33,9.23,6.78,15.05,18.68,15.07C503.63,305.51,534.91,305.48,566.19,305.48z M566.43,144.7
		c-31.28,0-62.56-0.02-93.83,0.01c-12.19,0.01-19.07,5.43-18.91,14.7c0.16,9.14,7.18,14.47,19.35,14.48
		c62.25,0.03,124.5,0.02,186.75,0c12.78,0,19.94-5.47,19.79-14.92c-0.15-9.26-6.84-14.25-19.32-14.27
		C628.98,144.68,597.71,144.7,566.43,144.7z M567.47,210.49c-31.89,0-63.77-0.03-95.66,0.02c-11.37,0.02-18.19,5.61-18.13,14.61
		c0.06,8.92,6.98,14.55,18.31,14.56c63.16,0.04,126.33,0.05,189.49,0c11.32-0.01,18.15-5.73,18.09-14.74
		c-0.07-9.07-6.71-14.4-18.27-14.42C630.02,210.46,598.75,210.49,567.47,210.49z M401.07,305.44c3.34,0,6.7,0.18,10.03-0.03
		c8.77-0.55,14.66-6.27,14.86-14.2c0.21-8.3-5.87-14.49-15.06-14.86c-6.68-0.27-13.38-0.28-20.06,0
		c-8.8,0.37-14.59,6.11-14.76,14.14c-0.19,8.43,5.73,14.41,14.96,14.93C394.38,305.61,397.73,305.46,401.07,305.44z M401.13,144.75
		c-3.65,0-7.31-0.2-10.94,0.04c-8.27,0.55-13.82,6.09-14.11,13.81c-0.29,7.75,4.83,14.33,12.91,14.97
		c8.14,0.64,16.48,0.83,24.56-0.16c7.79-0.95,12.3-6.38,12.38-14.52c0.08-7.63-5.73-13.45-13.86-14.07
		C408.44,144.54,404.77,144.77,401.13,144.75z M401.66,210.58c0-0.01,0-0.02,0-0.04c-3.95,0-7.93-0.29-11.85,0.06
		c-8.01,0.72-12.84,5.16-13.63,13.28c-0.76,7.74,4.37,14.74,12.27,15.41c8.44,0.72,17.09,0.92,25.46-0.16
		c7.77-1,12.36-6.7,11.93-14.8c-0.42-8.01-5.23-12.77-13.25-13.7C409,210.24,405.31,210.58,401.66,210.58z"/>
	<path class="st0" d="M329.29,819.89c-20.38-35.99-41.91-74.01-63.35-111.88c0.29-0.83,0.32-1.67,0.7-1.89
		c31.31-18.02,62.56-36.15,94.02-53.9c19.4-10.95,39.63-11.58,60.7-4.43c34.76,11.81,69.69,23.12,104.68,34.26
		c9.22,2.94,18.89,4.48,28.35,6.67c13.47,3.12,22.46,14.6,21.02,26.83c-1.64,13.89-11.72,22.73-27.07,20.47
		c-16.73-2.46-33.14-7.33-49.58-11.55c-13.23-3.39-26.27-7.47-39.45-11.07c-11.05-3.01-18.75,0.65-21.05,9.7
		c-2.19,8.63,2.42,15.69,13.13,18.35c36.19,9.02,72.29,18.53,108.77,26.23c25.31,5.34,49.37-0.69,71.75-13.86
		c43.72-25.72,87.62-51.15,131.47-76.66c16.34-9.51,33.04-18.12,52.16-20.63c23.81-3.14,39.63,14.95,31.75,37.09
		c-1.79,5.02-5.92,10.29-10.43,13.09c-82.87,51.4-165.92,102.52-249.06,153.49c-18.81,11.53-39.23,13.93-60.57,8.23
		c-58.66-15.65-117.29-31.4-176.01-46.79C345.09,820.05,338.41,820.56,329.29,819.89z"/>
	<path class="st0" d="M277.63,931.13c-10.15-0.5-15.6-5.88-19.93-13.56c-30.22-53.69-60.63-107.27-90.98-160.88
		c-4.93-8.72-10.05-17.34-14.72-26.19c-6.08-11.52-3.38-21.25,7.89-27.94c11.48-6.82,23.11-13.4,34.88-19.69
		c11.4-6.08,21.4-3.32,27.87,8.06c35.84,63.06,71.55,126.19,107.14,189.4c5.69,10.11,4.1,20.06-4.93,25.81
		c-13.28,8.46-27.29,15.79-41.1,23.42C281.72,930.68,279.11,930.77,277.63,931.13z M199.08,744.3c6.97-0.05,12.9-5.77,13.1-12.62
		c0.21-7.14-6.08-13.54-13.25-13.49c-7.28,0.05-13.3,6.37-13,13.65C186.21,738.85,192.02,744.36,199.08,744.3z"/>
	<path class="st0" d="M678.47,838.72c48.92-30.13,97.85-60.26,147.79-91.01c0.39,3.06,0.85,4.98,0.85,6.89
		c0.05,22.16,0.1,44.32,0.01,66.49c-0.07,14.55-5.29,19.8-19.78,19.82c-40.68,0.07-81.35,0.03-122.03,0.01
		c-2.07,0-4.15-0.25-6.22-0.38C678.88,839.93,678.68,839.33,678.47,838.72z"/>
	<path class="st0" d="M235.56,166.81c31.39-31.31,62.06-61.9,92.81-92.56c0.15,1.39,0.58,3.61,0.59,5.83
		c0.05,24.61,0.07,49.22,0.01,73.83c-0.03,10.8-2.07,12.87-12.65,12.88C289.4,166.84,262.49,166.81,235.56,166.81z"/>
</g>
</svg>
