<?xml version="1.0" encoding="utf-8"?>
<!-- Generator: Adobe Illustrator 24.3.0, SVG Export Plug-In . SVG Version: 6.00 Build 0)  -->
<svg version="1.1" id="Layer_1" xmlns="http://www.w3.org/2000/svg" xmlns:xlink="http://www.w3.org/1999/xlink" x="0px" y="0px"
	 viewBox="0 0 1000 1000" style="enable-background:new 0 0 1000 1000;" xml:space="preserve">
<style type="text/css">
	.st0{fill:#E85A24;}
</style>
<g>
	<path class="st0" d="M179.64,625.67c24.44-25.56,52.37-44.66,89.98-39.37c13.62,1.92,28.4,6.26,39.4,14.08
		c39.13,27.8,83.64,42.46,128.38,57.07c9.69,3.17,19.44,6.18,28.98,9.75c20.51,7.68,30.75,31.36,24.15,55.13
		c-6.21,22.36-23.19,32.65-46.73,28.29c-21.03-3.9-42.05-7.82-63.07-11.72c-9.28-1.72-15.76,1.66-16.62,9.13
		c-0.99,8.59,3.9,12.47,11.84,13.9c21.7,3.9,43.56,7.14,64.98,12.22c35.55,8.42,67.81-18.21,74.21-52.48
		c2.63-14.09,0.49-27.37-4.03-40.73c-1.06-3.15-0.31-8.45,1.79-10.88c15.06-17.45,30.48-34.61,46.19-51.47
		c15.46-16.6,38.86-15.94,53.82,1.02c15.82,17.93,18.76,43.06,7.1,65.42c-32.27,61.83-74.96,115.31-129.78,158.58
		c-19.6,15.47-40.4,29.48-61.26,43.25c-19.12,12.63-40.07,14.41-61.32,5.63c-33.73-13.94-67.22-28.46-100.93-42.46
		c-5.55-2.3-7.3-5.85-8.92-11.45c-4.99-17.34-10.99-34.4-17.01-51.43c-14.8-41.85-29.6-83.69-44.89-125.36
		C191.51,649.82,185.45,638.44,179.64,625.67z"/>
	<path class="st0" d="M250.29,297.16c4.91-3.37,7.42-5.27,10.09-6.9c77.23-47.13,154.55-94.13,231.68-141.42
		c19.2-11.77,38.52-13.22,59.26-4.58c33.99,14.15,68.03,28.21,102.43,41.3c10.2,3.88,21.72,4.19,32.54,6.56
		c2.99,0.66,7.13,2.1,8.26,4.4c27.72,56.32,55.11,112.8,82.85,169.84c-2.31,1.65-4.26,3.27-6.41,4.56
		c-26.85,16-53.18,32.99-80.83,47.45c-12.69,6.64-27.76,9.77-42.14,11.93c-52.06,7.81-104.25,14.69-156.44,21.58
		c-23.75,3.13-38.08-10.49-36.48-34.39c1.3-19.48,10.69-33.21,29.51-40.34c36.89-13.97,73.63-28.33,110.41-42.58
		c3.36-1.3,6.81-2.63,9.82-4.55c11.09-7.09,13.7-24.48,2.74-31.13c-21.49-13.04-43.86-25.19-67.12-34.6
		c-17.43-7.05-35.73-0.29-52.77,6.34c-8.26,3.21-16.68,6.48-24.18,11.1c-20.6,12.7-42.52,16.55-66.66,15.83
		c-44.75-1.33-89.57-0.38-134.36-0.38C259.34,297.16,256.2,297.16,250.29,297.16z"/>
	<path class="st0" d="M528.88,329c-19.31,7.46-38.7,14.72-57.9,22.44c-34.9,14.03-53.34,53.46-42.1,89.44
		c9.22,29.52,35.66,44.62,69.37,39.7c12.66-1.85,25.35-3.5,38.45-5.3c2.26,7.57,2.26,12-7.25,14.12
		c-26.69,5.95-45.02,22.38-54.07,48.27c-2.21,6.33-4.94,8.46-11.73,8.43c-83.96-0.26-167.92-0.11-251.89-0.38
		c-3.29-0.01-8.45-2.38-9.57-5c-13.49-31.52-26.35-43.17-60.41-53.05c-0.2-1.69-0.61-3.59-0.61-5.5
		c-0.04-30.29,0.06-60.58-0.12-90.86c-0.03-5.32,1.05-7.83,6.99-9.38c26.42-6.87,44.41-23.43,53.14-49.46
		c1.59-4.75,3.79-6.65,9.01-6.63c105.03,0.36,210.06,0.53,315.09,0.77c1.17,0,2.33,0.37,3.5,0.56
		C528.82,327.78,528.85,328.39,528.88,329z M333.85,507.35c39.04,0.52,71.51-30.93,72.23-69.97c0.72-39.18-30.65-72.21-69.27-72.93
		c-39.88-0.74-72.53,30.54-73.04,69.97C263.26,474.5,294.32,506.82,333.85,507.35z M193.39,449.93c0,0.01,0,0.02,0,0.03
		c5.25,0,10.55,0.43,15.75-0.1c8.1-0.83,12.49-6.24,12.56-13.92c0.07-7.69-4.26-13.53-12.33-14.06c-10.46-0.69-21.03-0.68-31.5-0.03
		c-8,0.5-12.45,6.08-12.53,13.88c-0.08,7.82,4.29,13.13,12.31,14.08C182.83,450.43,188.14,449.93,193.39,449.93z"/>
	<path class="st0" d="M815.17,85.53c17.38,0.56,25.61,8.95,31.45,21.1c29.03,60.47,57.5,121.22,87.66,181.12
		c15.53,30.85,11.76,45.92-20.39,60.85c-20.26,9.41-39.79,20.41-59.72,30.54c-20.08,10.21-35.7,5.07-45.59-15.21
		c-31.29-64.13-62.48-128.3-93.62-192.5c-9.59-19.78-4.34-35.18,15.08-45.08c23.73-12.1,47.43-24.26,71.3-36.08
		C806.5,87.71,812.33,86.48,815.17,85.53z"/>
	<path class="st0" d="M236.45,849.01c-1.09,19.31-8.51,32.87-23.98,41.35c-11.24,6.16-22.62,12.08-34.17,17.65
		c-21.22,10.24-43.01,1.38-51.16-20.97c-21.97-60.19-43.83-120.41-65.5-180.7c-8.9-24.75-0.38-45.8,22.87-58.04
		c10.47-5.51,20.86-11.21,31.5-16.38c20.67-10.04,43.04-1.47,50.94,20.06c22.39,61.08,44.43,122.29,66.46,183.5
		C235.16,840.36,235.72,845.67,236.45,849.01z"/>
	<path class="st0" d="M536.3,518.62c5.05,23.78-4.17,31.42-31.55,26.13C508.71,530.72,521.22,520.36,536.3,518.62z"/>
	<path class="st0" d="M142.29,352.5c-3.85-23.32,3.98-30.22,28.78-25.36C167.46,340.26,156.09,350.28,142.29,352.5z"/>
	<path class="st0" d="M172.32,544.58c-26.51,4.1-32.74-1.25-30.45-26.41C156.14,522.28,165.88,530.56,172.32,544.58z"/>
	<path class="st0" d="M335,485.16c-26.69,0.08-48.95-22.05-49.19-48.91c-0.24-27.17,22.34-49.96,49.34-49.8
		c26.55,0.16,48.79,22.74,48.72,49.47C383.81,462.74,361.64,485.08,335,485.16z"/>
</g>
</svg>
