<?xml version="1.0" encoding="utf-8"?>
<!-- Generator: Adobe Illustrator 24.3.0, SVG Export Plug-In . SVG Version: 6.00 Build 0)  -->
<svg version="1.1" id="Layer_1" xmlns="http://www.w3.org/2000/svg" xmlns:xlink="http://www.w3.org/1999/xlink" x="0px" y="0px"
	 viewBox="0 0 1000 1000" style="enable-background:new 0 0 1000 1000;" xml:space="preserve">
<style type="text/css">
	.st0{fill:#E85A24;}
</style>
<g>
	<path class="st0" d="M512.62,51.36c5.01,1.31,10.06,2.51,15.04,3.94c44,12.66,74.3,58.34,68.1,102.62
		c-7.03,50.21-47.1,86-95.84,85.6c-47.5-0.39-87.74-35.42-94.38-82.16c-7.41-52.15,26.6-99.06,78.6-108.48
		c1.37-0.25,2.64-1,3.96-1.52C496.28,51.36,504.45,51.36,512.62,51.36z"/>
	<path class="st0" d="M948.64,303.47c-3.98,16.13-8.86,31.76-19.09,45.38c-28.13,37.43-78.56,49.33-120.56,28.1
		c-41.26-20.86-61.71-68.84-48.25-113.25c13.51-44.58,56.78-72.94,102.91-67.46c42.71,5.08,75.6,36.16,83.44,78.8
		c0.25,1.35,1.03,2.61,1.56,3.92C948.64,287.13,948.64,295.3,948.64,303.47z"/>
	<path class="st0" d="M948.64,937.23c-5.41,8.41-13.07,10.69-22.97,10.68C643.78,947.7,361.9,947.58,80.02,948
		c-27.29,0.04-29.78-9.21-27.28-31.64c2.66-0.15,5.45-0.43,8.25-0.43c293.55-0.02,587.11-0.02,880.66-0.01c2.33,0,4.66,0.2,6.98,0.3
		C948.64,923.23,948.64,930.23,948.64,937.23z"/>
	<path class="st0" d="M817.08,676.13C856.8,744.96,896.33,813.47,936.45,883c-291.19,0-580.94,0-872.15,0
		c40.13-69.56,79.65-138.07,119.37-206.91c15.69,12.3,32.96,15.97,51.6,15.81c34.13-0.29,68.27,0.18,102.41-0.17
		c32.75-0.34,57.24-23.76,57.81-54.55c0.56-30.4-23.81-56.52-54.33-57.2c-27.12-0.6-54.26-0.16-81.4-0.22
		c-11.04-0.02-15.79-8.21-10.3-17.78c9.86-17.19,19.97-34.23,29.59-51.55c4.33-7.79,10.31-10.97,19.16-10.96
		c134.79,0.13,269.58,0.13,404.38,0c8.88-0.01,14.8,3.3,19.13,11.03c9.81,17.55,20.1,34.83,30.09,52.28
		c4.84,8.45-0.18,16.94-10.01,16.97c-27.72,0.09-55.44-0.35-83.15,0.28c-24.57,0.55-45.64,18.71-51.96,43.36
		c-5.74,22.39,4.06,47.91,24.99,59.35c9.34,5.1,20.82,8.36,31.44,8.67c36.15,1.04,72.35,0.47,108.52,0.37
		C788.17,691.73,803.18,686.8,817.08,676.13z"/>
	<path class="st0" d="M774.05,535.06c-5.38-45.8-0.69-83.2,41.32-106.03c51.84-28.17,115.84,8.48,116.92,67.8
		c1.38,76.09,0.58,152.23,0.21,228.35c-0.09,18.52-7.79,34.22-22.65,46.88c-1.84-2.83-3.32-4.9-4.59-7.09
		c-21.13-36.58-42.11-73.25-63.48-109.69c-2.95-5.04-2.68-8.55,0.12-13.36c16.42-28.2,32.7-56.48,48.53-85.01
		c2.49-4.48,4.58-11.28,2.91-15.41c-1.94-4.79-7.68-9.44-12.78-11.21c-6.51-2.25-12.42,1.78-15.97,7.89
		c-8.19,14.11-16.25,28.29-24.36,42.46c-11,19.22-22.09,38.38-32.94,57.68c-8.03,14.29-19.9,21.3-36.41,21.2
		c-35.59-0.21-71.18-0.01-106.76-0.08c-16.16-0.03-27.01-9.53-27.06-23.4c-0.05-13.77,11.7-24.33,27.56-24.39
		c26.84-0.12,53.68-0.23,80.51,0.04c14.88,0.15,25.62-5.89,32.92-18.86c14.87-26.4,29.97-52.67,45.05-78.95
		c4.03-7.03,4.54-13.88-0.91-20.26c-4.67-5.46-11.11-7.16-17.41-4.22c-3.89,1.82-7.42,5.62-9.75,9.37
		C787.85,510.34,781.33,522.33,774.05,535.06z"/>
	<path class="st0" d="M91.18,772.33c-15.07-12.89-22.83-28.33-22.92-46.55c-0.39-76.43-0.84-152.88,0.14-229.31
		c0.55-42.73,36.13-76.17,78.76-77.01c41.76-0.82,77.21,31.55,80.45,74.23c1,13.21,0.16,26.56,0.16,42.35
		c-2.77-4.39-4.32-6.66-5.68-9.03c-5.38-9.35-10.64-18.76-16.06-28.08c-6.23-10.72-15.11-13.98-23.78-8.87
		c-8.43,4.97-10.01,13.92-4.15,24.41c5.26,9.41,10.65,18.76,16,28.12c9.69,16.95,19.5,33.84,29.07,50.86
		c6.95,12.38,17.33,18.28,31.5,18.21c27.72-0.13,55.45-0.28,83.16,0.07c20.07,0.26,31.9,19.51,22.46,35.9
		c-4.24,7.36-10.76,11.67-19.27,11.69c-38.81,0.13-77.62,0.28-116.42-0.18c-14.42-0.17-24.17-8.69-31.12-20.92
		c-18.42-32.44-37.06-64.75-55.47-97.2c-3.89-6.86-8.83-11.83-17.18-11.16c-12.09,0.97-18.12,13.53-11.76,24.96
		c12.05,21.64,24.56,43.03,36.74,64.6c5.56,9.85,14.98,19.86,15.01,29.83c0.03,9.6-9.74,19.25-15.27,28.84
		C127.66,709.13,109.74,740.16,91.18,772.33z"/>
	<path class="st0" d="M564.49,467.29c-43.11,0-85,0-128.25,0c0-3.62,0-7.01,0-10.4c0-32.67,0.06-65.33-0.04-98
		c-0.03-11.37-4.38-17.45-12.94-18.88c-11.02-1.84-18.96,5.54-19.01,18.18c-0.12,32.96-0.04,65.92-0.05,98.88c0,3.16,0,6.32,0,10.07
		c-10.72,0-20.74,0-31.08,0c-0.26-1.33-0.66-2.42-0.66-3.51c0.02-38.21-0.84-76.44,0.38-114.61c1.26-39.07,36.13-72.39,75.78-73.28
		c34.41-0.77,68.85-0.76,103.26-0.01c41.15,0.9,75.53,35.52,76.23,76.54c0.63,36.74,0.19,73.5,0.2,110.25c0,1.4-0.3,2.8-0.52,4.69
		c-10.09,0-19.89,0-30.79,0c-0.15-2.93-0.44-5.98-0.44-9.03c-0.03-31.5-0.02-63-0.02-94.5c0-2.33,0.08-4.67-0.04-7
		c-0.52-10.41-6.83-16.98-16.18-16.93c-9.45,0.05-15.64,6.37-15.71,17.16c-0.21,33.25-0.09,66.5-0.11,99.75
		C564.49,460.05,564.49,463.46,564.49,467.29z"/>
	<path class="st0" d="M148.33,387.48c-53.04,0.08-96.32-43.22-96.21-96.27c0.11-52.64,43.12-95.67,95.83-95.87
		c52.8-0.2,96.6,43.61,96.34,96.37C244.02,344.46,201,387.4,148.33,387.48z"/>
</g>
</svg>
