<?xml version="1.0" encoding="utf-8"?>
<!-- Generator: Adobe Illustrator 24.3.0, SVG Export Plug-In . SVG Version: 6.00 Build 0)  -->
<svg version="1.1" id="Layer_1" xmlns="http://www.w3.org/2000/svg" xmlns:xlink="http://www.w3.org/1999/xlink" x="0px" y="0px"
	 viewBox="0 0 512 512" style="enable-background:new 0 0 512 512;" xml:space="preserve">
<style type="text/css">
	.st0{fill:#182D57;}
</style>
<g>
	<path class="st0" d="M9.66,336.97c2.07-7,3.3-14.39,6.37-20.92c11.84-25.17,31.79-39.65,59.69-41.63
		c13.95-0.99,28.03-0.17,42.45-0.17c-0.32,1.35-0.69,2.52-0.88,3.73c-1.61,10.7-4.45,21.39-4.57,32.11
		c-0.51,46.19-0.28,92.39-0.14,138.59c0.02,5.52,1.08,11.04,1.71,16.98c-5.43,0-11,0-16.57,0c-14.07,0-28.15-0.37-42.2,0.08
		c-23.21,0.75-42.25-14.78-45.35-36.83c-0.04-0.28-0.34-0.52-0.52-0.77C9.66,397.75,9.66,367.36,9.66,336.97z"/>
	<path class="st0" d="M255.23,465.65c-32.14,0-64.27,0-96.41,0c-12.86,0-17.77-4.84-17.77-17.51c-0.01-46.36-0.1-92.73,0.03-139.09
		c0.1-34.84,22.06-62.48,55.76-70.32c4.78-1.11,9.8-1.57,14.72-1.59c29.1-0.15,58.2-0.3,87.29-0.02
		c33.96,0.32,61.34,22.44,69.01,55.53c1.25,5.39,1.68,11.07,1.7,16.62c0.13,46.68,0.09,93.37,0.07,140.05
		c0,11.07-5.33,16.32-16.54,16.33C320.46,465.67,287.85,465.65,255.23,465.65z"/>
	<path class="st0" d="M255.48,49c46.72,0.09,85.11,38.27,85.18,84.73c0.08,47.01-38.18,85.53-85.21,85.8
		c-46.79,0.26-85.8-39.05-85.41-86.07C170.42,86.83,208.78,48.91,255.48,49z"/>
	<path class="st0" d="M397.17,465.41c0.34-11.12,0.93-21.93,0.96-32.75c0.12-39.18,0.01-78.35,0.07-117.53
		c0.02-13.18-0.98-26.18-5.34-38.74c-0.2-0.57-0.16-1.22-0.22-1.74c0.42-0.3,0.66-0.63,0.9-0.62c16.75,0.43,33.77-0.85,50.2,1.7
		c32.45,5.03,56.53,34.07,57.13,66.98c0.49,26.7,0.39,53.41,0.07,80.11c-0.28,22.92-16.52,41.27-38.75,42.36
		C440.35,466.24,418.42,465.41,397.17,465.41z"/>
	<path class="st0" d="M169.24,192.41c-0.41,35.26-29.25,63.96-63.93,63.61c-35.27-0.36-63.82-29.12-63.54-64.03
		c0.28-35.46,29.16-63.88,64.47-63.44C141.35,128.98,169.64,157.67,169.24,192.41z"/>
	<path class="st0" d="M468.91,192.07c0.14,34.99-28.44,63.71-63.63,63.94c-34.76,0.23-63.52-28.46-63.84-63.7
		c-0.32-34.96,28.34-63.71,63.57-63.78C440.18,128.47,468.77,156.89,468.91,192.07z"/>
</g>
</svg>
