<?xml version="1.0" encoding="utf-8"?>
<!-- Generator: Adobe Illustrator 24.3.0, SVG Export Plug-In . SVG Version: 6.00 Build 0)  -->
<svg version="1.1" id="Layer_1" xmlns="http://www.w3.org/2000/svg" xmlns:xlink="http://www.w3.org/1999/xlink" x="0px" y="0px"
	 viewBox="0 0 1000 1000" style="enable-background:new 0 0 1000 1000;" xml:space="preserve">
<style type="text/css">
	.st0{fill:#E85A24;}
</style>
<g>
	<path class="st0" d="M943.57,794.85c-1.99,7.75-3.55,15.65-6.03,23.24c-15.65,47.99-58.7,81.15-109.9,83.31
		c-27.6,1.17-55.29,0.21-82.51,0.21c69.16-118.62,37.33-223.02-44.06-321.28c-0.42,0.46-0.09-0.24,0.28-0.26
		c52.85-2.86,104.31,0.94,150.06,31.72c51.63,34.74,82.16,82.7,90.57,144.53c0.26,1.93,1.05,3.78,1.59,5.68
		C943.57,772.95,943.57,783.9,943.57,794.85z"/>
	<path class="st0" d="M379.65,901.75c-66.26,0-132.53,0.2-198.79-0.06c-59.46-0.23-109.08-39.65-120.11-97.06
		c-8.2-42.7,1.25-83.45,22.54-120.63c37.29-65.12,94.07-101.81,169.37-103.55c86.95-2.01,174.04-2.05,260.98,0.24
		c89.13,2.35,167.55,72.17,184.3,159.69c4.75,24.82,6.53,49.7-0.82,74.4c-15.5,52.13-62.18,86.74-117.83,86.93
		C512.76,901.92,446.21,901.75,379.65,901.75z"/>
	<path class="st0" d="M581.36,298.01c-0.05,111.01-90.34,201.2-201.36,201.11c-111.12-0.09-201.01-90.15-200.96-201.34
		c0.05-111.11,90.32-201.41,201.19-201.24C491.26,96.71,581.41,187.01,581.36,298.01z"/>
	<path class="st0" d="M582.47,494.34c105.52-107.5,105.47-285.1,0.57-392.32c44.94-22.37,140.47,8.72,188.02,61.21
		c59.77,65.96,68.68,165.09,21.67,240.49C740.36,487.7,645.92,510.29,582.47,494.34z"/>
</g>
</svg>
