<?xml version="1.0" encoding="utf-8"?>
<!-- Generator: Adobe Illustrator 24.3.0, SVG Export Plug-In . SVG Version: 6.00 Build 0)  -->
<svg version="1.1" id="Layer_1" xmlns="http://www.w3.org/2000/svg" xmlns:xlink="http://www.w3.org/1999/xlink" x="0px" y="0px"
	 viewBox="0 0 1000 1000" style="enable-background:new 0 0 1000 1000;" xml:space="preserve">
<style type="text/css">
	.st0{fill:#182D57;}
</style>
<g>
	<path class="st0" d="M509.58,53.36c1.98,1.04,3.92,2.15,5.94,3.1c13.8,6.52,21.66,17.22,22.19,32.61
		c0.4,11.59,0.33,23.21,0.08,34.81c-0.1,4.93,1.36,7.01,6.55,7.95c108.14,19.65,188.75,97.5,211.1,204.88
		c3.81,18.29,4.62,37.37,5.11,56.13c1.03,39.14-0.78,78.41,1.65,117.44c4.15,66.74,32.82,122.44,82.52,167.06
		c14.33,12.86,25.34,27.22,27.04,46.94c3.39,39.14-23.79,69.96-63.24,72.08c-2.32,0.12-4.64,0.1-6.96,0.1
		c-200.47,0-400.95-0.05-601.42,0.07c-23.13,0.01-42.72-7.11-57.2-25.72c-21.58-27.74-17.09-65.8,10.97-90.41
		c24.5-21.49,44.46-46.45,59.39-75.39c18.98-36.79,27.61-76.06,27.68-117.32c0.06-35.68-0.42-71.38,0.25-107.05
		c2.28-122.15,94.06-228.48,214.46-248.53c6.85-1.14,8.7-3.61,8.28-9.97c-0.46-6.93,0.45-13.97-0.21-20.87
		c-2.19-23.01,6.47-39.31,28.4-47.89C497.97,53.36,503.77,53.36,509.58,53.36z"/>
	<path class="st0" d="M92.96,401.66c5.64-119.06,49.77-221.54,132.87-307.14c11-11.33,23.9-16.31,39.4-11.55
		c14.66,4.5,23.32,14.83,25.93,29.8c2.33,13.37-2.87,24.37-12.15,33.78c-25.4,25.76-46.96,54.39-64.4,86.11
		c-30.29,55.13-45.9,114.23-47.94,177.02c-0.22,6.64-0.06,13.46-1.57,19.84c-4.18,17.72-19.65,28.72-37.98,27.89
		c-16.94-0.77-31.48-13.31-33.95-30.61C91.99,418.57,92.96,410.04,92.96,401.66z"/>
	<path class="st0" d="M908.95,401.5c0,8.1,0.9,16.33-0.18,24.29c-2.7,19.84-19.23,32.74-39.23,31.61
		c-18.69-1.06-34.01-16.76-34.24-36.25c-0.5-43.23-6.88-85.42-20.84-126.41c-18.04-52.93-46.25-99.72-84.42-140.53
		c-3.57-3.81-7.28-7.5-10.67-11.47c-13.23-15.49-12.28-37.27,2.1-51.09c14.36-13.8,36.93-14.74,50.99-0.09
		c16.63,17.33,32.83,35.33,47.11,54.6C875.7,221.91,904.8,307.41,908.95,401.5z"/>
	<path class="st0" d="M365.15,833.74c90.7,0,180.79,0,270.88,0c-0.02,50.67-64.99,107.52-126.49,110.96
		C431.94,949.04,374.9,891.32,365.15,833.74z"/>
</g>
</svg>
