<?xml version="1.0" encoding="utf-8"?>
<!-- Generator: Adobe Illustrator 24.3.0, SVG Export Plug-In . SVG Version: 6.00 Build 0)  -->
<svg version="1.1" id="Layer_1" xmlns="http://www.w3.org/2000/svg" xmlns:xlink="http://www.w3.org/1999/xlink" x="0px" y="0px"
	 viewBox="0 0 1000 1000" style="enable-background:new 0 0 1000 1000;" xml:space="preserve">
<style type="text/css">
	.st0{fill:#E85A24;}
</style>
<g>
	<path class="st0" d="M276.14,173.29c0-22.33-1.61-44.73,0.53-66.77c1.57-16.22,13.7-26.52,29.86-30.31
		c5.67-1.33,11.73-1.35,17.62-1.35c190.89-0.06,381.78-0.06,572.67-0.05c37.79,0,55.34,17.63,55.34,55.58
		c0,250.07,0.01,500.13-0.01,750.2c0,25.87-11.62,43.96-33.11,50.02c-7.13,2.01-14.91,2.33-22.4,2.35
		c-62.1,0.18-124.19,0.1-186.29,0.1c-125.84,0-251.67,0-377.51,0c-3.81,0-7.63,0-13.36,0c23.81-35.51,12.3-72.8,10.68-108.86
		c-2.63-58.73-7.15-117.38-11.15-176.05c-0.44-6.53,1.55-8.84,7.86-10.69c103.75-30.29,174.62-126.46,171.37-232.01
		c-3.39-109.84-77.2-200.75-183.44-225.56C302.42,177.01,289.68,175.57,276.14,173.29z M877.51,744.26c0-41.7,0.03-83.4-0.02-125.1
		c-0.01-12.91-3.52-16.47-16.21-16.5c-28.89-0.06-57.78-0.04-86.67-0.01c-13.29,0.02-17.1,3.67-17.11,16.81
		c-0.05,83.07-0.05,166.15,0,249.22c0.01,12.72,3.69,16.38,16.41,16.42c28.89,0.08,57.78,0.07,86.67,0.01
		c13.7-0.03,16.9-3.21,16.92-16.72C877.53,827,877.51,785.63,877.51,744.26z M795.17,496.01c-2.74,2.88-3.76,4.08-4.91,5.16
		c-41.7,39.08-83.3,78.27-125.32,117c-3.1,2.86-9.55,4.04-13.94,3.24c-46.14-8.4-92.15-17.56-138.3-25.9
		c-5.21-0.94-11.83,0.59-16.55,3.21c-14.05,7.78-27.48,16.68-41.16,25.14c-18.7,11.57-37.49,22.98-56.05,34.76
		c-9.33,5.91-9.99,17.67-0.91,20.98c4.29,1.56,11.04,0.1,15.23-2.42c29.55-17.71,58.62-36.23,88.13-54c3.98-2.4,9.86-3.61,14.4-2.8
		c46.48,8.34,92.93,16.91,139.24,26.2c9.36,1.88,15.49-0.54,21.98-6.67c41.55-39.24,83.32-78.24,125.04-117.31
		c2.26-2.12,4.67-4.08,8.66-7.56c-0.77,13.6-1.63,24.95-1.99,36.32c-0.24,7.74,3.94,12.89,11.66,13.06
		c7.16,0.16,11.41-4.34,11.84-11.78c1.24-21.31,2.48-42.62,3.66-63.94c0.51-9.13-3.55-14.31-13-14.81
		c-20.98-1.12-41.97-2.27-62.95-3.46c-8.02-0.45-13.65,2.43-14.54,10.99c-0.77,7.38,4.73,12.08,14.23,12.65
		C770.74,494.74,781.87,495.29,795.17,496.01z M442.87,787.63c0,27.28-0.09,54.55,0.04,81.83c0.06,12.09,3.4,15.56,15.07,15.61
		c29.9,0.12,59.8,0.13,89.7,0c11.24-0.05,14.82-3.56,14.84-14.81c0.11-55.21,0.11-110.42,0.01-165.63
		c-0.02-11.58-3.84-15.17-15.52-15.2c-29.24-0.07-58.49-0.06-87.73-0.01c-12.9,0.02-16.33,3.37-16.38,16.38
		C442.8,733.07,442.87,760.35,442.87,787.63z M719.98,802.13c0-22.34,0.07-44.68-0.03-67.01c-0.05-11.58-3.79-15.52-15.24-15.58
		c-29.56-0.15-59.12-0.14-88.68-0.01c-11.94,0.05-15.86,4.02-15.89,16.19c-0.1,44.68-0.11,89.35,0.01,134.03
		c0.03,11.66,3.81,15.3,15.46,15.34c29.56,0.11,59.12,0.11,88.68,0.01c12.38-0.04,15.62-3.4,15.67-15.94
		C720.04,846.8,719.99,824.47,719.98,802.13z M676.33,198.35c0-15.42,0.11-30.83-0.04-46.25c-0.1-10.71-4.12-14.76-14.98-14.8
		c-30.83-0.12-61.65-0.13-92.48,0.01c-10.7,0.05-14.71,4.19-14.74,15.03c-0.1,30.83-0.11,61.66,0,92.49
		c0.04,10.77,4.04,14.69,14.97,14.72c30.83,0.1,61.65,0.11,92.48,0c10.79-0.04,14.67-4.03,14.75-14.95
		C676.42,229.18,676.33,213.77,676.33,198.35z M676.33,366.98c0-15.74,0.1-31.49-0.04-47.23c-0.1-10.77-4.09-14.8-14.92-14.84
		c-30.83-0.11-61.65-0.12-92.48,0c-10.76,0.04-14.77,4.12-14.81,14.94c-0.1,30.83-0.11,61.66,0,92.49
		c0.04,10.8,4.03,14.77,14.91,14.81c30.83,0.11,61.65,0.11,92.48,0c10.81-0.04,14.72-4.05,14.82-14.91
		C676.43,397.16,676.33,382.07,676.33,366.98z M805.7,238.31c25.57,0,51.14-0.06,76.71,0.04c6.48,0.03,11.78-1.69,14.1-8.26
		c2.94-8.31-3.69-15.37-14.81-15.39c-50.16-0.1-100.31-0.08-150.47-0.02c-10.67,0.01-15.86,3.99-15.95,11.75
		c-0.09,7.86,4.94,11.82,15.67,11.85C755.87,238.37,780.79,238.31,805.7,238.31z M805.43,405.8c25.57,0,51.14,0.06,76.71-0.03
		c9.67-0.03,15.32-4.39,14.83-11.69c-0.61-9.14-6.86-11.92-14.99-11.93c-50.49-0.01-100.97-0.06-151.46,0.04
		c-10.33,0.02-15.8,4.63-15.18,12.51c0.74,9.48,7.27,11.19,15.34,11.15C755.6,405.71,780.51,405.8,805.43,405.8z M775.84,158.71
		c-15.4,0-30.8,0.1-46.2-0.04c-7.91-0.07-13.64,2.48-14.3,11.2c-0.58,7.6,4.74,12.38,14.24,12.43c30.8,0.15,61.61,0.15,92.41,0
		c9.54-0.05,14.83-4.77,14.3-12.36c-0.62-8.73-6.31-11.33-14.23-11.26C806.65,158.8,791.25,158.71,775.84,158.71z M775.64,326.32
		c-15.07,0-30.15,0.13-45.22-0.05c-8.18-0.1-14.5,1.97-15.09,11.38c-0.48,7.56,4.86,12.22,14.44,12.27
		c30.8,0.16,61.6,0.17,92.4-0.01c9.47-0.06,14.74-4.96,14.09-12.58c-0.74-8.76-6.56-11.12-14.43-11.04
		C806.45,326.43,791.04,326.32,775.64,326.32z"/>
	<path class="st0" d="M262.35,197.56c119.11,1.42,213.66,97.06,212.27,214.73c-1.39,117.54-97.7,212.1-214.39,210.5
		c-120.14-1.65-212.42-96.8-211.02-217.57C50.54,290.82,147.66,196.19,262.35,197.56z M261.38,584.07
		c95.58,0.13,174.03-77.85,174.24-173.21c0.21-95.64-77.73-174.3-172.92-174.52c-96.34-0.22-174.46,77.56-174.45,173.71
		C88.26,506.04,165.77,583.94,261.38,584.07z"/>
	<path class="st0" d="M222.68,737.94c26.34,0,51.79,0,78.23,0c0.59,8.06,1.21,15.78,1.7,23.51c2.56,40.28,5.45,80.54,7.49,120.84
		c1.39,27.42-12.43,47.29-35.6,53.36c-32.48,8.51-59.57-12.74-59.09-47.96c0.44-32.13,2.88-64.24,4.48-96.36
		C220.76,773.7,221.73,756.07,222.68,737.94z"/>
	<path class="st0" d="M223.93,712.95c1.12-23.06,2.2-45.5,3.26-67.41c22.82,0,44.68,0,67.83,0c1.46,21.88,2.96,44.23,4.51,67.41
		C274.5,712.95,250.09,712.95,223.93,712.95z"/>
	<path class="st0" d="M853.21,860.88c-24,0-47.46,0-71.48,0c0-78.2,0-155.82,0-234.01c23.88,0,47.35,0,71.48,0
		C853.21,704.58,853.21,782.2,853.21,860.88z"/>
	<path class="st0" d="M467.18,713.5c24.14,0,47.32,0,71.13,0c0,49.15,0,97.86,0,147.26c-23.65,0-47.06,0-71.13,0
		C467.18,811.73,467.18,763.01,467.18,713.5z"/>
	<path class="st0" d="M695.87,744.01c0,39.02,0,77.6,0,116.81c-23.9,0-47.35,0-71.47,0c0-38.81,0-77.37,0-116.81
		C647.89,744.01,671.28,744.01,695.87,744.01z"/>
	<path class="st0" d="M578.07,235.11c0-24.59,0-48.77,0-73.57c24.71,0,49.11,0,74.05,0c0,24.4,0,48.58,0,73.57
		C627.94,235.11,603.53,235.11,578.07,235.11z"/>
	<path class="st0" d="M578.47,328.91c24.66,0,48.82,0,73.59,0c0,24.77,0,49.18,0,74.11c-24.48,0-48.65,0-73.59,0
		C578.47,378.75,578.47,354.33,578.47,328.91z"/>
	<path class="st0" d="M261.77,560.39c-83.03-0.06-150.02-67.41-149.87-150.67c0.15-82.96,67.84-150.11,150.89-149.7
		c82.14,0.4,149.32,68.29,149.16,150.73C411.79,492.99,344.1,560.45,261.77,560.39z M195.53,390.55c20.35,0,40.01,0,59.74,0
		c-1.88,9.21-9.49,16.42-19.3,17.27c-8.61,0.75-17.31,0.49-25.98,0.65c-3.38,0.06-6.75,0.01-10.36,0.01c0,8.6-0.07,16.71,0.09,24.83
		c0.02,1.12,1.02,2.36,1.82,3.33c19.02,22.8,38.11,45.54,57.11,68.35c1.64,1.98,3.32,2.89,5.98,2.86
		c14.19-0.14,28.38-0.06,42.57-0.08c1.26,0,2.51-0.15,3.77-0.23c0.28-0.36,0.56-0.71,0.84-1.07c-17.98-22.55-36.46-44.71-54.8-67.55
		c24.74-7.48,41.78-21.9,45.97-48.46c6.77,0,13.18,0,19.71,0c2.46-9.47,4.86-18.7,7.37-28.39c-9.23,0-17.99,0-26,0
		c-2.63-7.42-5.06-14.27-7.53-21.23c7.64,0,15.38-0.09,23.12,0.05c2.37,0.05,3.45-0.61,4.01-3.04c1.46-6.39,3.23-12.71,4.86-19.07
		c0.5-1.95,0.95-3.92,1.5-6.24c-2.12,0-3.69,0-5.26,0c-37.97,0-75.94,0-113.91,0c-6.57,0-6.57,0-8.16,6.62
		c-0.34,1.4-0.72,2.79-1.05,4.2c-1.96,8.36-3.9,16.72-5.93,25.46c7.1,0,13.65-0.08,20.2,0.02c7.09,0.12,14.21-0.01,21.23,0.76
		c7.66,0.83,13.66,4.69,17.4,12.59c-17.59,0-34.57,0-51.66,0C200.43,371.7,198.06,380.82,195.53,390.55z"/>
</g>
</svg>
