<?xml version="1.0" encoding="utf-8"?>
<!-- Generator: Adobe Illustrator 24.3.0, SVG Export Plug-In . SVG Version: 6.00 Build 0)  -->
<svg version="1.1" id="Layer_1" xmlns="http://www.w3.org/2000/svg" xmlns:xlink="http://www.w3.org/1999/xlink" x="0px" y="0px"
	 viewBox="0 0 1000 1000" style="enable-background:new 0 0 1000 1000;" xml:space="preserve">
<style type="text/css">
	.st0{fill:#E85A24;}
</style>
<g>
	<path class="st0" d="M451.74,65.62c32.74,0,65.48,0,98.22,0c1.02,0.47,1.99,1.1,3.05,1.38c24.21,6.28,38.2,22.04,41.94,46.48
		c3.03,19.78,5.32,39.69,7.45,59.59c0.63,5.85,2.81,8.73,8.42,10.77c12.42,4.52,24.66,9.64,36.65,15.21
		c4.62,2.15,7.56,1.51,11.28-1.44c15.24-12.11,30.65-24,46.05-35.91c25.15-19.46,53.03-18.06,75.55,4.08
		c18.12,17.8,36.07,35.77,53.88,53.88c21.91,22.27,23.57,50.06,4.6,74.88c-12.16,15.92-24.7,31.55-36.65,47.62
		c-1.7,2.28-2.27,6.79-1.26,9.47c4.96,13.17,10.35,26.2,16.25,38.96c1.33,2.87,5.1,6.01,8.12,6.47c19.24,2.87,38.57,5.13,57.89,7.38
		c16.13,1.88,30.31,7.84,39.65,21.44c4.99,7.27,7.76,16.06,11.53,24.17c0,32.74,0,65.48,0,98.22c-0.48,1.01-1.13,1.98-1.41,3.05
		c-6.55,24.93-23.02,38.71-48.16,42.27c-19.26,2.72-38.58,5.1-57.93,7.13c-5.86,0.62-8.76,2.83-10.77,8.45
		c-4.26,11.92-9.05,23.69-14.45,35.14c-2.49,5.28-2.51,8.8,1.27,13.47c12.26,15.12,24.12,30.56,35.94,46.03
		c18.91,24.76,17.21,52.61-4.7,74.9c-17.8,18.12-35.79,36.05-53.88,53.88c-22.19,21.87-50.15,23.5-74.88,4.5
		c-15.66-12.03-31.28-24.12-46.73-36.41c-3.75-2.98-6.7-3.52-11.29-1.41c-12.26,5.65-24.74,10.92-37.42,15.55
		c-5.14,1.87-6.9,4.57-7.46,9.65c-2.16,19.34-4.63,38.64-7.08,57.94c-3.92,30.88-25.71,50.19-56.77,50.27
		c-26.25,0.07-52.5,0.22-78.74-0.06c-26.24-0.28-48.06-18.34-52.37-44.15c-3.53-21.12-5.88-42.45-8.32-63.73
		c-0.63-5.53-2.79-8.26-8.02-10.21c-12.39-4.61-24.63-9.7-36.66-15.19c-4.47-2.04-7.41-1.95-11.31,1.17
		c-15.64,12.51-31.46,24.8-47.42,36.9c-24.51,18.57-52.44,16.83-74.25-4.64c-18.3-18.02-36.45-36.19-54.48-54.48
		c-21.49-21.8-23.13-49.73-4.44-74.21c12.16-15.92,24.43-31.76,36.9-47.43c2.83-3.56,3.27-6.29,1.35-10.54
		c-5.68-12.57-11.09-25.28-15.88-38.21c-1.79-4.83-4.4-6.46-9.08-7c-19.33-2.23-38.62-4.75-57.94-7.09
		c-31.18-3.77-50.63-25.66-50.69-57.25c-0.05-25.96-0.18-51.93,0.05-77.89c0.23-26.71,18.25-48.51,44.55-52.88
		c20.85-3.47,41.89-5.83,62.9-8.19c5.87-0.66,8.73-2.88,10.75-8.48c4.39-12.17,9.38-24.16,14.81-35.9c2.19-4.72,2.19-7.87-1.12-12
		c-12.36-15.4-24.42-31.04-36.43-46.72c-18.95-24.76-17.21-52.83,4.64-74.88c17.68-17.84,35.47-35.58,53.29-53.28
		c22.58-22.43,50.2-24.35,75.46-5.14c15.94,12.12,31.56,24.68,47.63,36.62c2.28,1.7,6.78,2.25,9.46,1.25
		c13.17-4.94,26.2-10.31,38.98-16.2c2.87-1.32,5.95-5.13,6.44-8.18c2.39-15.03,3.81-30.21,5.83-45.3
		c1.89-14.2,2.66-28.68,11.67-40.97C425.21,76.17,437.5,69.48,451.74,65.62z M681.45,493.86c-4.35-100.6-87.52-179.22-185.47-175.34
		c-100.77,3.99-179.73,87.52-175.75,185.91c4.05,100.26,87.8,179.44,185.48,175.35C606.71,675.56,685.69,592,681.45,493.86z"/>
</g>
</svg>
