<?xml version="1.0" encoding="utf-8"?>
<!-- Generator: Adobe Illustrator 24.3.0, SVG Export Plug-In . SVG Version: 6.00 Build 0)  -->
<svg version="1.1" id="Layer_1" xmlns="http://www.w3.org/2000/svg" xmlns:xlink="http://www.w3.org/1999/xlink" x="0px" y="0px"
	 viewBox="0 0 512 512" style="enable-background:new 0 0 512 512;" xml:space="preserve">
<style type="text/css">
	.st0{fill:#182D57;}
</style>
<g>
	<path class="st0" d="M486,269.59c-1.97,5.75-3.18,11.92-6.06,17.18c-9.15,16.68-23.7,25.07-42.68,25.78
		c-1.79,0.07-3.58,0.01-6.15,0.01c0,1.71,0,3.42,0,5.13c0,35.86,0,71.72,0,107.58c0,16.89-8.5,25.42-25.29,25.43
		c-25.4,0-50.8,0-76.2,0c-1.63,0-3.26,0-5.17,0c4.1-14.67,8.12-29.06,12.22-43.73c16.53,0,33.25,0,50.67,0c0-1.97,0-3.69,0-5.4
		c0-45.27-0.19-90.55,0.11-135.82c0.1-14.87,5.5-27.96,16.6-38.36c2.65-2.49,5.36-3.54,9.17-3.36c11.48,0.55,22.99,0.71,34.49,0.64
		c3.02-0.02,6.35-0.85,8.96-2.32c3.2-1.8,5.34-1.12,8,0.78c10.95,7.84,17.86,18.23,20.48,31.46c0.17,0.85,0.56,1.65,0.85,2.47
		C486,261.22,486,265.4,486,269.59z"/>
	<path class="st0" d="M199.85,176.35c-5.66,4.56-10.49,8.53-15.41,12.38c-23.45,18.32-49.9,28.34-79.8,28.86
		c-12.54,0.22-25.09,0.76-37.63,0.87c-10.25,0.09-17.72-7.24-17.65-16.85c0.08-9.65,7.58-16.32,17.92-16.59
		c15.23-0.39,30.44-1.07,45.66-1.78c22.01-1.02,39.63-12.06,56.25-25.15c4.81-3.79,9.3-7.98,13.85-12.07
		c10.61-9.55,23.04-13.85,37.29-13.75c24.06,0.18,48.12,0.21,72.17-0.01c14.61-0.13,26.95,4.78,38.07,14.2
		c10.11,8.56,20.77,16.51,31.53,24.26c11.87,8.55,25.67,11.84,40.03,12.65c14.31,0.81,28.65,1.34,42.98,1.64
		c10.74,0.23,18.33,6.76,18.43,16.54c0.1,9.75-7.47,17.21-18.06,16.85c-18.49-0.62-37-1.4-55.45-2.77
		c-22.73-1.69-41.7-12.71-59.71-25.62c-5.68-4.08-11.02-8.64-17.14-13.47c0,25.59,0,50.69,0,76.32c-13.18-1.97-25.67-3.83-38.5-5.74
		c-3.26-23.89-6.5-47.64-9.69-71.03c-5.72,0-11.01,0-17.07,0c-2.92,21.38-5.92,43.3-8.98,65.65c-9.09-1.33-17.9-2.63-26.71-3.92
		c-0.3-0.04-0.58-0.13-0.88-0.18c-3.65-0.64-9-0.06-10.52-2.21c-1.94-2.74-0.94-7.67-0.96-11.65
		C199.81,208.29,199.85,192.78,199.85,176.35z M264.3,149.6c-1.98,0-3.74,0-5.51,0c-10.3,0-10.3,0-12.83,9.87
		c-1.78,6.94-0.39,9.72,6.84,10.32c4.32,0.36,8.87-1.22,13.2-2.39c0.94-0.25,2.07-2.63,1.85-3.79
		C266.96,158.97,265.57,154.43,264.3,149.6z"/>
	<path class="st0" d="M125.56,406.89c48.08,0,95.55,0,144.4,0c-5.14,14.92-10.04,29.17-15.08,43.8c-1.62,0-3.23,0-4.84,0
		c-47.96,0-95.92,0-143.88,0c-15.47,0-24.36-8.94-24.37-24.55c-0.02-36.01-0.01-72.01-0.01-108.02c0-1.76,0-3.52,0-4.36
		c-8.16-1.57-16.05-2.03-23.14-4.67c-18.59-6.91-29.28-20.97-31.37-40.55c-2.03-19.06,5.6-34.33,21.21-45.57
		c2.48-1.79,4.52-2.37,7.62-0.72c2.9,1.55,6.52,2.39,9.84,2.41c11.49,0.07,22.99-0.52,34.49-0.46c2.54,0.01,5.63,0.98,7.53,2.6
		c11.7,10.01,17.33,23.32,17.46,38.34c0.39,45.27,0.14,90.54,0.14,135.81C125.56,402.71,125.56,404.48,125.56,406.89z"/>
	<path class="st0" d="M173.33,289.48c9.1,7.33,20.3,6.93,30.79,8.56c35.26,5.45,70.52,10.97,105.91,15.47
		c7.74,0.98,10.87,4.36,13.61,10.51c9.42,21.12,11.15,43.19,8.64,65.81c-2.92,26.34-10.85,51.33-20.93,75.69
		c-5.61,13.56-20.4,19.77-33.73,14.52c-13.3-5.24-19.53-19.71-14.98-33.61c5.51-16.84,11.21-33.67,15.62-50.82
		c3.51-13.65,4.06-27.81,0.54-41.74c-2.6-10.28-8-18.73-17.87-23.4c-3.25-1.54-7.07-2.52-10.65-2.59c-18.59-0.4-36.62-2.94-53-12.51
		C186.75,309.21,178.5,300.87,173.33,289.48z"/>
	<path class="st0" d="M312.45,309.97c-9.8-1.44-21.47-3.13-33.12-4.87c-29.23-4.36-58.43-8.88-87.69-13.07
		c-19.86-2.84-30.74-21.55-22-38.42c4.95-9.55,15.21-15.33,25.99-13.83c23.95,3.33,47.85,7,71.76,10.54
		c16.98,2.52,33.97,4.95,50.92,7.64c13.66,2.16,23.32,14.34,22.27,27.63C339.49,299.46,328.17,309.97,312.45,309.97z"/>
	<path class="st0" d="M256.72,123.43c-27.22,0.06-49.46-21.99-49.5-49.07c-0.04-27.09,22.22-49.42,49.24-49.39
		c26.93,0.03,49.15,22.09,49.25,48.9C305.81,101.09,283.79,123.37,256.72,123.43z"/>
	<path class="st0" d="M193.41,225.71c0,2.6,0,4.67,0,7.05c-2.84,0.48-5.63,0.76-8.33,1.44c-16.92,4.3-27.18,20.24-24.2,38.07
		c4.8,28.67,22.37,46.25,49.08,55.68c2.94,1.04,5.96,1.86,8.93,3.44c-1.16,0-2.31,0-3.47,0c-20.92,0-41.83-0.01-62.75,0.01
		c-8.12,0.01-11,2.93-11.01,11.12c-0.02,13-0.02,25.99,0,38.99c0.01,8.04,2.99,10.98,11.16,10.98c37.95,0.01,75.89,0.01,113.84,0.01
		c1.78,0,3.56,0,5.34,0c0.08,7.82-0.03,7.93-7.35,7.93c-42.28,0-84.56,0-126.84,0c-1.75,0-3.5,0-5.77,0c0-2.24,0-3.99,0-5.74
		c0-42.13-0.03-84.26,0.02-126.39c0.02-14.17-3.7-27.09-12.27-38.5c-0.44-0.58-0.74-1.26-1.53-2.63c3.76-0.64,7.07-1.68,10.4-1.71
		c20.62-0.16,41.23-0.1,61.85-0.09C191.39,225.37,192.24,225.57,193.41,225.71z"/>
	<path class="st0" d="M319.34,225.35c10.17,0,19.56,0,28.96,0c11.35,0,22.71-0.13,34.06,0.07c3.93,0.07,7.85,0.97,12.77,1.63
		c-7.42,9.25-11.6,18.7-13.28,29.18c-0.54,3.37-0.96,6.8-0.97,10.21c-0.06,42.72-0.04,85.44-0.04,128.16c0,1.76,0,3.52,0,5.55
		c-14.73,0-28.98,0-43.53,0c0.36-2.51,0.69-4.82,1.09-7.65c7.39,0,14.67,0.02,21.95-0.01c7.82-0.03,10.85-3.04,10.87-10.83
		c0.03-13.29,0.04-26.59,0-39.88c-0.02-7.2-3.19-10.35-10.4-10.39c-8.07-0.04-16.13,0.1-24.2-0.11c-1.4-0.04-3.43-1.08-4.02-2.24
		c-2.68-5.3-4.95-10.8-7.5-16.53c0.94-0.51,2.07-1.13,3.22-1.74c11.1-5.88,17.39-17.29,16.28-29.57
		c-1.12-12.43-9.09-22.6-21.15-26.18c-3.45-1.02-4.3-2.51-4.19-5.88C319.52,241.43,319.34,233.69,319.34,225.35z"/>
	<path class="st0" d="M102.03,467.23c0-3.32,0-6.66,0-10.21c8.68,0,17.12,0,25.86,0c0,3.37,0,6.59,0,10.21
		C119.43,467.23,110.9,467.23,102.03,467.23z"/>
	<path class="st0" d="M385.09,456.95c8.62,0,16.95,0,25.68,0c0,3.44,0,6.75,0,10.37c-8.47,0-16.89,0-25.68,0
		C385.09,464.05,385.09,460.74,385.09,456.95z"/>
</g>
</svg>
