<?xml version="1.0" encoding="utf-8"?>
<!-- Generator: Adobe Illustrator 24.3.0, SVG Export Plug-In . SVG Version: 6.00 Build 0)  -->
<svg version="1.1" id="Layer_1" xmlns="http://www.w3.org/2000/svg" xmlns:xlink="http://www.w3.org/1999/xlink" x="0px" y="0px"
	 viewBox="0 0 1000 1000" style="enable-background:new 0 0 1000 1000;" xml:space="preserve">
<style type="text/css">
	.st0{fill:#182D57;}
</style>
<g>
	<path class="st0" d="M37.02,648.65c3.9-13.15,6.2-27.05,11.97-39.32c22.26-47.32,59.77-74.54,112.22-78.27
		c26.23-1.87,52.7-0.33,79.81-0.33c-0.6,2.53-1.3,4.75-1.65,7.01c-3.03,20.11-8.36,40.21-8.59,60.36
		c-0.96,86.84-0.52,173.7-0.27,260.55c0.03,10.38,2.04,20.75,3.22,31.93c-10.22,0-20.68,0-31.14,0c-26.45,0-52.91-0.7-79.33,0.16
		c-43.64,1.41-79.43-27.78-85.25-69.23c-0.07-0.52-0.65-0.97-0.98-1.45C37.02,762.91,37.02,705.78,37.02,648.65z"/>
	<path class="st0" d="M497.96,890.58c-60.72,0-121.43,0.02-182.15-0.01c-22.12-0.01-31.76-9.68-31.77-31.85
		c-0.02-87.47-0.18-174.93,0.05-262.4c0.18-65.57,41.29-117.5,104.69-132.29c9.55-2.23,19.62-3.03,29.46-3.08
		c53.8-0.29,107.61-0.45,161.41-0.06c64.51,0.47,116.23,41.74,130.74,104.27c2.42,10.41,3.21,21.41,3.24,32.14
		c0.25,87.47,0.16,174.93,0.13,262.4c-0.01,20.9-9.98,30.84-30.94,30.86C621.19,890.61,559.57,890.58,497.96,890.58z"/>
	<path class="st0" d="M498.87,427.86c-88.09-0.07-160.32-72.64-160.37-161.13c-0.05-87.58,72.79-159.78,160.88-159.47
		c87.85,0.31,160.04,72.31,159.92,159.52C659.19,355.31,586.86,427.93,498.87,427.86z"/>
	<path class="st0" d="M765.39,890.12c0.69-20.05,1.88-39.48,1.94-58.91c0.23-74.26,0.01-148.51,0.14-222.77
		c0.04-25.08-1.75-49.83-10.05-73.74c-0.37-1.06-0.28-2.29-0.48-4.13c2.96-0.22,5.53-0.59,8.1-0.56
		c24.34,0.22,48.77-0.73,73.01,1.02c68.19,4.91,121.3,60.99,122.48,129.37c0.86,49.89,0.7,99.81,0.08,149.71
		c-0.54,43.07-31.11,77.56-72.9,79.59C846.65,891.68,805.43,890.12,765.39,890.12z"/>
	<path class="st0" d="M97.38,376.75c-0.42-65.7,53.48-119.75,119.64-119.95c65.86-0.21,119.31,52.58,120.01,118.51
		c0.7,66.1-53.33,120.87-119.51,121.15C151.79,496.74,97.8,442.95,97.38,376.75z"/>
	<path class="st0" d="M900.41,376.31c0.18,65.83-53.58,119.8-119.69,120.15c-65.4,0.35-119.41-53.59-119.95-119.81
		c-0.54-65.75,53.34-119.76,119.57-119.85C846.47,256.7,900.23,310.21,900.41,376.31z"/>
</g>
</svg>
