<?xml version="1.0" encoding="utf-8"?>
<!-- Generator: Adobe Illustrator 24.3.0, SVG Export Plug-In . SVG Version: 6.00 Build 0)  -->
<svg version="1.1" id="Layer_1" xmlns="http://www.w3.org/2000/svg" xmlns:xlink="http://www.w3.org/1999/xlink" x="0px" y="0px"
	 viewBox="0 0 1000 1000" style="enable-background:new 0 0 1000 1000;" xml:space="preserve">
<style type="text/css">
	.st0{fill:#182D57;}
</style>
<g>
	<path class="st0" d="M544.46,928.22c-93.98,0-187.96,0.01-281.94,0c-26.49,0-39.08-13.72-35-39.72
		c20.72-132.04,95.57-218.73,220.83-263.31c31.42-11.18,63.21-19.07,96.81-18.34c116.09,2.53,205.4,53.59,269.4,149.55
		c26.28,39.4,41.3,83.4,47.77,130.28c3.63,26.36-9.53,41.53-35.92,41.54C732.42,928.22,638.44,928.22,544.46,928.22z"/>
	<path class="st0" d="M703.52,394.8c-0.03,87.09-71.54,158.98-158.21,159.05c-87.07,0.07-159.53-72.14-159.51-158.96
		c0.02-88.45,70.07-159.1,157.55-158.9C631.95,236.19,703.56,307.19,703.52,394.8z"/>
	<path class="st0" d="M339.37,462.23c29.06,61.64,29.09,61.68,83.91,110.69c-13.35,5.65-26.82,10.7-39.73,16.92
		c-80.9,38.94-140.87,98.95-179.57,179.99c-2.74,5.74-6.08,7.41-12.14,7.32c-23.33-0.33-46.66-0.1-69.99-0.14
		c-25.72-0.05-38.21-14.04-34.52-39.46c16.46-113.55,75.32-197.21,177.36-249.97C288.07,475.48,313.03,467.43,339.37,462.23z"/>
	<path class="st0" d="M513.05,181.46c-59.62,10.67-107.67,39.96-142.97,88.8c-35.19,48.68-47.48,103.19-37.6,162.89
		c-44.65-17.39-94.98-70.89-94.12-146.72c0.76-67.19,45.46-127.9,110.03-148.73C415.02,116.21,480.9,142.92,513.05,181.46z"/>
	<path class="st0" d="M749.1,160.26c0-16.81-0.1-32.17,0.02-47.53c0.17-22.31,16.01-39.06,37.07-39.37
		c21.22-0.32,37.65,15.59,38.42,38.03c0.54,15.89,0.1,31.82,0.1,48.86c16.87,0,33.02-0.24,49.17,0.06
		c24.87,0.46,42.05,22.61,36.52,46.69c-3.88,16.88-18.67,28.35-37.83,28.84c-12.7,0.32-25.41,0.05-38.11,0.1
		c-2.88,0.01-5.76,0.27-9.72,0.47c0,15.75,0.19,31.02-0.05,46.28c-0.32,20.93-12.55,36.07-31.32,39.27
		c-22.8,3.88-43.55-12.72-44.17-35.87c-0.44-16.21-0.08-32.44-0.08-49.7c-3.54-0.17-6.63-0.42-9.72-0.46
		c-14.47-0.19-29.02,0.59-43.39-0.68c-20.64-1.83-34.89-19.31-33.75-39.53c1.1-19.6,17.21-35.06,37.4-35.4
		C715.84,160.04,732.02,160.26,749.1,160.26z"/>
</g>
</svg>
