<?xml version="1.0" encoding="utf-8"?>
<!-- Generator: Adobe Illustrator 24.3.0, SVG Export Plug-In . SVG Version: 6.00 Build 0)  -->
<svg version="1.1" id="Layer_1" xmlns="http://www.w3.org/2000/svg" xmlns:xlink="http://www.w3.org/1999/xlink" x="0px" y="0px"
	 viewBox="0 0 1000 1000" style="enable-background:new 0 0 1000 1000;" xml:space="preserve">
<style type="text/css">
	.st0{fill:#E85A24;}
</style>
<path class="st0" d="M131.13,66.4c-41.47,0.02-66.08,24.87-66.09,66.58c-0.02,245.7-0.02,491.4,0,737.1
	c0,41.49,24.81,66.32,66.34,66.34c116.53,0.05,233.05,0.02,349.58,0c3.16,0,6.31-0.28,9.58-0.44c0-290.17,0-579.19,0-869.6
	c-3.92,0-6.88,0-9.84,0C364.18,66.38,247.65,66.34,131.13,66.4z M240.79,175.71c-10.15-1.11-20.46-0.93-30.71-1.1
	c-9.47-0.16-18.95-0.04-29.22-0.04c2.94-12.64,5.75-24.73,8.58-36.82c0.48-2.03,1.03-4.04,1.52-6.07c2.3-9.57,2.29-9.57,11.8-9.57
	c54.92,0,109.83,0,164.75,0c2.27,0,4.53,0,7.61,0c-0.8,3.36-1.45,6.2-2.17,9.03c-2.36,9.19-4.92,18.33-7.04,27.57
	c-0.8,3.51-2.37,4.45-5.8,4.39c-11.2-0.21-22.4-0.08-33.45-0.08c3.57,10.06,7.09,19.97,10.89,30.7c11.58,0,24.25,0,37.6,0
	c-3.64,14.01-7.1,27.36-10.66,41.05c-9.44,0-18.71,0-28.51,0c-6.06,38.41-30.71,59.26-66.49,70.09
	c26.52,33.03,53.25,65.08,79.25,97.69c-0.4,0.51-0.81,1.03-1.21,1.54c-1.82,0.12-3.64,0.33-5.45,0.33
	c-20.52,0.02-41.05-0.09-61.57,0.11c-3.85,0.04-6.28-1.29-8.66-4.14c-27.48-32.99-55.08-65.89-82.6-98.86
	c-1.16-1.4-2.61-3.18-2.64-4.81c-0.23-11.73-0.12-23.47-0.12-35.9c5.22,0,10.1,0.07,14.98-0.01c12.53-0.22,25.12,0.14,37.57-0.94
	c14.18-1.23,25.2-11.66,27.91-24.99c-28.53,0-56.97,0-86.4,0c3.66-14.07,7.09-27.26,10.66-40.97c24.72,0,49.28,0,74.72,0
	C260.55,182.5,251.87,176.92,240.79,175.71z M167.62,471.68c1.69-1.41,5.16-0.9,7.84-0.9c68.24-0.04,136.48-0.03,204.72-0.02
	c2.4,0,5.56-0.74,7.04,0.48c2.95,2.43,6.91,6.02,6.85,9.05c-0.06,2.93-4.28,6.35-7.41,8.42c-1.93,1.27-5.26,0.48-7.96,0.48
	c-33.67,0.02-67.34,0.01-101.01,0.01c-33.37,0-66.74,0.01-100.1-0.02c-3,0-6.58,0.75-8.85-0.59c-2.94-1.74-6.56-5.13-6.73-8
	C161.83,477.68,164.96,473.91,167.62,471.68z M394.09,564.62c-0.31,3.21-4.07,6.52-7.06,8.86c-1.53,1.19-4.65,0.42-7.05,0.42
	c-67.94,0.01-135.88,0.01-203.82,0.01c-2.1,0-4.85,0.77-6.18-0.27c-3.17-2.46-7.83-5.79-7.83-8.77c-0.01-3.06,4.36-6.83,7.67-8.94
	c2.16-1.37,5.85-0.38,8.86-0.38c33.37-0.01,66.74-0.01,100.11-0.01c33.67,0,67.34-0.01,101.01,0.02c2.69,0,6.08-0.71,7.92,0.62
	C390.57,558.25,394.35,561.97,394.09,564.62z M326.52,828.36c-16.26-0.1-32.51-0.03-48.77-0.03c-15.96,0-31.91-0.06-47.87,0.02
	c-6.83,0.03-12.41-1.82-12.18-9.78c0.22-7.6,5.92-8.67,12.22-8.66c32.21,0.08,64.43,0.09,96.64-0.01c6.57-0.02,11.9,1.91,11.84,9.15
	C338.34,826.16,333.1,828.4,326.52,828.36z M386.53,743.16c-1.49,1.2-4.65,0.37-7.05,0.37c-33.97,0.01-67.94,0.01-101.91,0.01
	c-33.67,0-67.34,0.01-101.01-0.01c-2.7,0-6.18,0.8-7.92-0.54c-2.95-2.29-6.68-6.06-6.57-9.08c0.1-2.94,4.28-6.19,7.33-8.37
	c1.62-1.16,4.67-0.38,7.07-0.38c67.64-0.01,135.28-0.01,202.92,0c2.4,0,5.42-0.77,7.08,0.38c3.13,2.16,7.81,5.67,7.58,8.22
	C393.73,737.15,389.69,740.62,386.53,743.16z M387.96,658.07c-1.48,1.23-4.62,0.6-7.01,0.6c-68.54,0.02-137.08,0.02-205.62,0.02
	c-1.2,0-2.4-0.01-3.61-0.01c-6.02-0.01-9.99-2.69-10.09-8.97c-0.09-6.24,3.67-9.19,9.77-9.26c4.81-0.05,9.62-0.03,14.43-0.03
	c30.96,0,61.93,0,92.89,0c33.67,0,67.34-0.01,101.01,0.01c2.7,0,6.09-0.77,7.93,0.54c2.87,2.03,6.41,5.51,6.46,8.43
	C394.17,652.31,390.69,655.79,387.96,658.07z"/>
<path class="st0" d="M934.87,131.01c0-6.85-0.73-13.92-2.52-20.5c-7.51-27.64-30.55-44.06-61.82-44.09
	c-117.43-0.1-234.86-0.04-352.29-0.02c-2.65,0-5.3,0.27-8.47,0.44c0,290.28,0,579.5,0,869.15c2.62,0.18,4.67,0.44,6.72,0.44
	c118.33,0.02,236.67,0.16,355-0.07c38.5-0.07,63.44-25.74,63.45-64.62C935,624.82,934.99,377.92,934.87,131.01z M575.85,147.32
	c0.01-11.73,2.54-14.3,14.27-14.3c87.91-0.02,175.81-0.02,263.72,0c11.73,0,14.56,2.73,14.57,14.16c0.03,96.03,0.03,192.07,0,288.1
	c0,11.71-2.49,14.15-14.44,14.15c-87.91,0.03-175.81,0.03-263.72,0c-12.51,0-14.4-2.01-14.4-14.92
	c-0.02-47.57-0.01-95.13-0.01-142.7C575.84,243.66,575.82,195.49,575.85,147.32z M868.41,855.31c0,11.68-2.75,14.48-14.26,14.48
	c-87.93,0.03-175.85,0.03-263.78,0c-12.17,0-14.52-2.46-14.53-14.97c-0.02-55.71-0.01-111.41-0.01-167.12
	c0-55.41-0.01-110.81,0.01-166.22c0-12.67,2.07-14.78,14.55-14.79c87.93-0.02,175.85-0.02,263.78,0c11.67,0,14.23,2.57,14.23,14.36
	C868.43,632.48,868.43,743.89,868.41,855.31z"/>
<path class="st0" d="M849.38,525.66c-85.57,0-170.01,0-254.78,0c0,108.57,0,216.51,0,325.7c3.64,0,6.85,0,10.06,0
	c78.27,0,156.54-0.12,234.81,0.18c8.16,0.03,10.63-1.99,10.61-10.44c-0.3-102.05-0.19-204.11-0.21-306.16
	C849.87,531.78,849.54,528.62,849.38,525.66z M783.46,564.45c6.28-0.19,12.58-0.17,18.86,0.01c5.71,0.16,8.97,3.35,8.97,9.05
	c0,5.73-3.44,8.73-9.02,9.12c-3.28,0.23-6.58,0.04-9.88,0.04c-2.99-0.01-6.65,1.08-8.83-0.25c-3.56-2.16-7.9-5.48-8.76-9.06
	C773.5,567.95,777.8,564.62,783.46,564.45z M798.02,621.46c6.76,0,13.39,0.89,13.2,9.63c-0.17,8.01-6.35,9.14-12.86,9.13
	c-27.92-0.02-55.85-0.01-83.77-0.01c-6.65,0-12.41-1.67-12.32-9.68c0.09-7.58,5.78-9.02,11.98-9.04
	c14.11-0.05,28.22-0.02,42.33-0.02C770.4,621.46,784.21,621.46,798.02,621.46z M810.79,688.3c-0.01,2.96-4.53,6.85-7.95,8.55
	c-2.88,1.43-7.03,0.29-10.62,0.29c0-0.02,0-0.04,0-0.06c-3.29,0-7.11,1.05-9.73-0.27c-3.22-1.63-7.7-5.37-7.54-7.95
	c0.21-3.39,3.96-8.7,6.99-9.33c6.88-1.44,14.43-1.47,21.33-0.14C806.44,680,810.81,685.2,810.79,688.3z M644.32,564.29
	c28.55,0.09,57.11,0.08,85.66,0.01c6.43-0.02,11.94,1.63,11.93,9.02c-0.01,7.82-5.76,9.51-12.53,9.45
	c-14.43-0.13-28.85-0.04-43.28-0.04c-13.83,0-27.65-0.11-41.48,0.05c-6.58,0.07-11.82-2.06-11.96-9.14
	C632.51,566.46,637.7,564.27,644.32,564.29z M660.1,640.1c-2.98,0.28-6,0.05-9,0.05c0-0.09,0-0.17,0-0.26
	c-3.6,0-7.88,1.23-10.61-0.31c-3.36-1.89-7.17-5.94-7.45-9.34c-0.22-2.58,4.4-7.38,7.53-8.04c6.33-1.34,13.34-1.57,19.63-0.22
	c3.65,0.78,8.4,5.07,9.21,8.57C670.77,636.44,665.87,639.55,660.1,640.1z M644.96,678.7c28.26,0.04,56.51,0.02,84.77,0.02
	c6.78,0,12.43,2.09,12.18,9.91c-0.24,7.45-6.04,8.74-12.28,8.72c-14.13-0.04-28.26-0.01-42.38-0.01c-14.13,0-28.26-0.07-42.38,0.03
	c-6.39,0.05-12.05-1.63-12.22-8.86C632.45,680.86,638.13,678.69,644.96,678.7z M669.39,745.81c-0.8,3.44-5.56,7.47-9.26,8.39
	c-5.65,1.41-12.17,1.42-17.82,0.01c-3.74-0.93-8.65-4.93-9.4-8.35c-1.22-5.6,3.16-9.26,9.25-9.53c3.29-0.14,6.6-0.03,9.9-0.03
	c2.7-0.01,5.41-0.14,8.1,0.02C666.13,736.68,670.73,740,669.39,745.81z M729.93,812.17c-14.12-0.11-28.25-0.03-42.38-0.03
	c-14.13,0-28.25-0.12-42.38,0.05c-6.86,0.08-12.56-1.81-12.52-9.49c0.04-7.2,5.49-8.97,12.02-8.94c28.55,0.13,57.1,0.11,85.65,0.02
	c6.56-0.02,11.78,1.92,11.58,9.29C741.71,810.29,736.41,812.22,729.93,812.17z M713.68,754.63c-6.56,0.04-11.56-1.92-11.4-9.42
	c0.15-6.91,4.92-8.96,11.07-8.96c28.83,0.01,57.66,0.03,86.49-0.01c6.57-0.01,11.59,2.13,11.41,9.52c-0.19,7.5-5.57,8.95-11.98,8.89
	c-14.41-0.13-28.83-0.04-43.25-0.04C741.91,754.6,727.8,754.54,713.68,754.63z M801.8,812.09c-2.98,0.17-5.99,0.03-8.98,0.03
	c0-0.02,0-0.04,0-0.07c-3.29,0-7.3,1.18-9.71-0.28c-3.51-2.13-7.62-5.92-8.11-9.47c-0.33-2.39,4.78-7.28,8.13-8.03
	c5.99-1.34,12.49-0.47,18.77-0.41c5.66,0.06,9.22,2.93,9.4,8.63C811.49,808.67,807.77,811.74,801.8,812.09z"/>
<path class="st0" d="M849.39,152.19c-85.37,0-170.01,0-254.54,0c0,93.26,0,185.78,0,278.34c85.13,0,169.58,0,254.54,0
	C849.39,337.77,849.39,245.48,849.39,152.19z M637,350.55c0,4.49,0.24,8.99-0.06,13.46c-0.39,5.82-3.62,10.6-9.5,9.23
	c-3.47-0.81-8.06-5.62-8.48-9.09c-1.16-9.43-1.16-19.19,0.05-28.61c0.44-3.42,5.57-6.25,8.57-9.35c3.13,3.03,7.73,5.55,9,9.23
	c1.57,4.54,0.38,10.04,0.38,15.12C636.97,350.55,636.99,350.55,637,350.55z M683.11,362.4c0.01,6.1-1.93,11.03-8.84,11.15
	c-7.33,0.13-9.65-4.84-9.65-11.38c0-10.2,0-20.4,0-30.6c0-10.5,0.02-21-0.01-31.5c-0.02-6.51,2.29-11.66,9.46-11.65
	c7.4,0.01,9.07,5.5,9.05,11.88C683.07,321,683.09,341.7,683.11,362.4z M729.39,364.69c-0.32,5.61-3.49,8.95-9.2,8.88
	c-5.71-0.07-8.83-3.41-8.91-9.1c-0.14-9.57-0.81-19.25,0.36-28.68c0.43-3.48,4.99-8.38,8.42-9.13c5.74-1.24,9.15,3.33,9.39,9.3
	c0.19,4.78,0.04,9.57,0.04,14.36c-0.01,0-0.02,0-0.03,0C729.45,355.11,729.66,359.92,729.39,364.69z M775.99,361.5
	c0,6.28-1.62,11.84-9.07,12.02c-8.07,0.19-9.65-5.65-9.66-12.28c-0.01-12.31,0-24.62,0-36.93c0-12.01,0.03-24.02-0.01-36.03
	c-0.02-6.37,1.84-11.97,9.04-12.11c7.73-0.15,9.73,5.62,9.72,12.37C775.98,312.86,776.01,337.18,775.99,361.5z M822.05,361.38
	c0.02,6.32-1.19,11.95-8.75,12.14c-7.99,0.21-9.74-5.4-9.7-12.22c0.1-14.44,0.03-28.88,0.03-43.32c0-14.14,0.1-28.28-0.05-42.41
	c-0.07-6.48,1.79-11.96,8.9-12.23c7.88-0.3,9.59,5.48,9.57,12.3C821.96,304.22,821.97,332.8,822.05,361.38z M822.15,225.36
	c-6.64,7.39-13.3,14.77-20.02,22.08c-4.74,5.15-9.81,5.32-14.97,0.59c-6.18-5.65-12.31-11.34-18.74-17.26
	c-15.85,14.79-31.22,29.18-46.66,43.51c-8.33,7.73-11.2,7.75-19.94,0.39c-7.8-6.57-15.56-13.2-23.76-20.16
	c-13.88,11.8-27.42,23.23-40.85,34.79c-5.22,4.49-10.94,8.09-16.36,1.52c-5.39-6.54-0.76-11.42,4.52-15.84
	c14.77-12.37,29.49-24.81,43.99-37.5c6.1-5.34,11.44-5.44,17.47-0.04c7.81,7.01,15.94,13.66,24.61,21.05
	c14.16-13.14,28-25.98,41.83-38.83c15.32-14.23,15.32-14.24,30.91,0.27c3.08,2.86,6.16,5.73,9.7,9.03
	c5.1-5.57,9.94-10.88,14.82-16.16c4.01-4.34,8.76-5.88,13.49-1.71C827.18,215.49,826.4,220.63,822.15,225.36z"/>
</svg>
