<?xml version="1.0" encoding="utf-8"?>
<!-- Generator: Adobe Illustrator 24.3.0, SVG Export Plug-In . SVG Version: 6.00 Build 0)  -->
<svg version="1.1" id="Layer_1" xmlns="http://www.w3.org/2000/svg" xmlns:xlink="http://www.w3.org/1999/xlink" x="0px" y="0px"
	 viewBox="0 0 1000 1000" style="enable-background:new 0 0 1000 1000;" xml:space="preserve">
<style type="text/css">
	.st0{fill:#182D57;}
</style>
<g>
	<path class="st0" d="M938.47,736.78c-2.13,11.14-3.78,22.4-6.47,33.4C907.12,871.91,815.1,940.6,709.3,936.63
		c-101.37-3.81-188.34-81.1-205.41-182.56c-20.38-121.16,63.34-235.67,184.87-252.85c121.53-17.18,234.17,69.7,248.15,191.38
		c0.26,2.22,1.03,4.39,1.56,6.58C938.47,711.71,938.47,724.25,938.47,736.78z M674.3,761.85c0.7,1.59,1.11,2.09,1.12,2.59
		c0.11,19.08,0.04,38.17,0.33,57.24c0.09,5.94,0.35,12.07,1.86,17.76c5.2,19.54,24.7,33.18,44.38,31.68
		c21.53-1.64,38.99-17.03,40.52-38.14c1.45-20.13,0.69-40.41,0.89-60.63c0.03-3.28,0-6.56,0-10.51c22.71,0,44.05,0.36,65.36-0.09
		c25.28-0.54,44.17-19.84,43.91-44.04c-0.25-24.04-18.76-42.67-43.72-43.33c-17.37-0.45-34.76-0.1-52.14-0.11
		c-4.17,0-8.34,0-13.43,0c0-20.74,0.17-40.33-0.1-59.9c-0.08-6.21-0.46-12.64-2.16-18.55c-5.96-20.66-25.91-33.14-47.45-30.38
		c-21.73,2.79-37.33,20.37-37.9,43.61c-0.45,18.51-0.11,37.03-0.12,55.55c0,3.01,0,6.01,0,9.68c-21.82,0-42.29,0.09-62.77-0.03
		c-13.48-0.08-25.37,3.79-34.55,13.91c-12.47,13.74-15.55,29.79-8.39,46.77c7.47,17.72,21.84,26.58,41.01,26.85
		C632.02,762.08,653.09,761.85,674.3,761.85z"/>
	<path class="st0" d="M425.52,61.53c5.15,1.5,10.4,2.74,15.44,4.54c36.69,13.09,58.31,50.9,50.59,88.29
		c-8,38.74-42.49,65.08-81.94,62.58c-38.35-2.43-69.08-33.58-71.87-72.86c-2.71-38.25,23.49-72.63,61.6-80.88
		c1.92-0.41,3.77-1.11,5.66-1.67C411.84,61.53,418.68,61.53,425.52,61.53z"/>
	<path class="st0" d="M460.4,760.24c-32.71,0-64.88,1.76-96.71-0.73c-16.39-1.28-25.82-15.71-28.04-32.57
		c-3.89-29.62-7.35-59.3-11.09-88.94c-3.67-29.08-7.54-58.13-11.12-87.21c-0.57-4.64-2.15-7.14-6.8-9.2
		c-31.33-13.86-48.6-37.79-48.84-72.45c-0.36-51.83-0.41-103.66,0.04-155.48c0.35-40.93,30.71-73.14,71.45-76.61
		c13.23-1.13,25.31,2.53,35.95,10.66c8.59,6.56,17.05,13.31,25.92,19.47c15.72,10.92,32.07,10.89,47.98,0.66
		c8.58-5.52,16.99-11.62,24.32-18.66c12.93-12.4,27.8-14.52,44.28-10.7c35.22,8.16,60.36,37.64,60.9,73.99
		c0.79,53.24,0.66,106.51-0.03,159.75c-0.25,19.6-7.99,35.98-23.4,50.03c-67.04,61.14-95.75,137.32-85.87,227.75
		C459.69,753.12,459.99,756.23,460.4,760.24z"/>
	<path class="st0" d="M224.78,285.06c-4.8,59.66-1.2,118.61-2.4,177.47c-0.72,35.51,10.8,65.83,36.95,90.36
		c1.87,1.76,3.23,5.4,2.93,7.94c-4.09,34.77-8.46,69.51-12.89,104.24c-1.84,14.45-13.79,25.94-29.16,26.42
		c-21.63,0.68-43.32,0.71-64.95,0.03c-17.32-0.55-27.78-12.21-30.17-31.14c-5.73-45.47-11.46-90.94-17.56-136.36
		c-0.41-3.09-3.32-7.05-6.13-8.41c-25.02-12.1-38.23-31.6-38.32-59.51c-0.13-40.45-0.16-80.91,0.01-121.36
		c0.13-31.15,20.52-55.87,50.83-62c13.63-2.75,25.95,0.22,36.85,8.98c5.32,4.28,10.6,8.67,16.23,12.51
		c16.4,11.2,28.28,11.18,44.96,0.16C216.18,291.61,220.15,288.45,224.78,285.06z"/>
	<path class="st0" d="M600.34,280.86c6.54,4.78,13.73,10.35,21.23,15.44c12.35,8.38,25.21,8.47,37.64,0.47
		c7.38-4.75,14.45-10.17,20.97-16.05c8.53-7.69,18.23-10.12,29.22-8.62c28.38,3.9,51.91,26.63,53.04,55.24
		c1.63,41.23,0.78,82.55,0.96,123.84c0.01,2.23-0.26,4.45-0.46,7.85c-55.54-8.84-108.37-0.64-158.77,23.11
		C601.42,414.42,607.62,347.29,600.34,280.86z"/>
	<path class="st0" d="M702.58,194.23c-0.13,34.03-28.11,61.88-62.15,61.88c-34.2,0-62.68-28.69-62.3-62.76
		c0.37-34.15,28.24-61.75,62.33-61.72C675.05,131.65,702.72,159.53,702.58,194.23z"/>
	<path class="st0" d="M251.25,193.85c-0.01,34.16-27.61,61.99-61.74,62.25c-34.17,0.26-62.74-28.17-62.67-62.38
		c0.07-34.04,27.95-62,61.94-62.1C223.46,131.52,251.27,159.21,251.25,193.85z"/>
</g>
</svg>
