<?xml version="1.0" encoding="utf-8"?>
<!-- Generator: Adobe Illustrator 24.3.0, SVG Export Plug-In . SVG Version: 6.00 Build 0)  -->
<svg version="1.1" id="Layer_1" xmlns="http://www.w3.org/2000/svg" xmlns:xlink="http://www.w3.org/1999/xlink" x="0px" y="0px"
	 viewBox="0 0 1000 1000" style="enable-background:new 0 0 1000 1000;" xml:space="preserve">
<style type="text/css">
	.st0{fill:#182D57;}
</style>
<path class="st0" d="M595.71,41.11c17.74,3.49,36.03,5.28,53.15,10.74c114.83,36.62,183.62,114.8,200.73,233.95
	c21.29,148.28-79.24,285.05-226.21,312.86c-143.99,27.25-288.45-68.35-320.88-212.34c-31.1-138.11,40.28-274.81,171.7-326.05
	c22.73-8.86,47.74-11.88,71.69-17.6c2.29-0.55,4.58-1.04,6.88-1.56C567.09,41.11,581.4,41.11,595.71,41.11z M447.76,299.81
	c40.7,0,80.03,0,119.48,0c-3.75,18.43-18.99,32.85-38.6,34.55c-17.22,1.5-34.62,0.99-51.95,1.3c-6.75,0.12-13.5,0.02-20.72,0.02
	c0,17.2-0.15,33.43,0.17,49.65c0.04,2.25,2.04,4.72,3.65,6.65c38.05,45.59,76.22,91.08,114.22,136.7c3.29,3.95,6.65,5.78,11.97,5.73
	c28.38-0.27,56.76-0.12,85.14-0.15c2.51,0,5.02-0.3,7.54-0.46c0.56-0.71,1.12-1.42,1.68-2.13c-35.96-45.1-72.92-89.42-109.59-135.09
	c49.47-14.97,83.56-43.81,91.94-96.92c13.55,0,26.36,0,39.42,0c4.92-18.94,9.71-37.39,14.74-56.77c-18.47,0-35.99,0-52,0
	c-5.26-14.84-10.12-28.54-15.06-42.45c15.27,0,30.76-0.18,46.25,0.11c4.74,0.09,6.91-1.22,8.02-6.07
	c2.92-12.78,6.47-25.42,9.73-38.13c1-3.91,1.89-7.85,3-12.49c-4.25,0-7.38,0-10.52,0c-75.94,0-151.88,0-227.82,0
	c-13.15,0-13.14,0-16.32,13.23c-0.67,2.81-1.44,5.59-2.1,8.4c-3.91,16.72-7.79,33.44-11.86,50.92c14.19,0,27.3-0.17,40.4,0.05
	c14.17,0.24,28.42-0.01,42.46,1.52c15.32,1.67,27.32,9.38,34.8,25.18c-35.18,0-69.14,0-103.33,0
	C457.57,262.12,452.82,280.34,447.76,299.81z"/>
<path class="st0" d="M198.32,956.6c0-4.01,0-7.51,0-11.01c0-79.01,0-158.02,0-237.03c0-52.06,26.48-83.38,77.37-95.13
	c63.96-14.77,124.01-5.96,181.68,24.64c15.45,8.2,31.75,15.37,48.45,20.44c14.89,4.52,30.8,6.95,46.39,7.66
	c26.48,1.21,53.06,0.23,79.59,0.37c20.29,0.11,30.55,10.93,30.13,31.34c-0.78,38.37-21.27,65.42-55.24,72.32
	c-6.06,1.23-12.45,1.23-18.68,1.24c-50.98,0.09-101.97-0.21-152.95,0.35c-7.24,0.08-15.36,2.72-21.42,6.69
	c-9.24,6.05-11.99,17.93-8.43,27.95c3.83,10.79,11.54,17.39,23.03,18.36c8.29,0.7,16.68,0.36,25.03,0.36
	c45.02,0.02,90.04-0.23,135.06,0.11c22.18,0.17,40.51-7.58,56.05-23.22c36.99-37.22,73.95-74.48,111.35-111.28
	c47.3-46.54,120.28-49.79,171.92-8.18c2.09,1.68,4.11,3.45,6.07,5.28c15.12,14.1,15.48,29.52,0.81,44.21
	c-61.1,61.18-122.26,122.3-183.4,183.44c-2.95,2.95-5.87,5.94-8.91,8.8c-22.73,21.32-49.71,32.67-80.85,32.7
	c-151.76,0.17-303.52,0.05-455.28,0.02C203.79,957.02,201.48,956.78,198.32,956.6z"/>
<path class="st0" d="M144.29,957.01c-21.54,0-42.1,0.51-62.63-0.17c-15.25-0.5-24.87-12.36-24.9-29.27
	c-0.09-53.66-0.04-107.32-0.04-160.97c0-15.5-0.18-31.01,0.1-46.5c0.24-13.16,8.28-24.95,20.38-25.67
	c22.17-1.32,44.47-0.37,67.09-0.37C144.29,781.54,144.29,868.76,144.29,957.01z"/>
</svg>
