<?xml version="1.0" encoding="utf-8"?>
<!-- Generator: Adobe Illustrator 24.3.0, SVG Export Plug-In . SVG Version: 6.00 Build 0)  -->
<svg version="1.1" id="Layer_1" xmlns="http://www.w3.org/2000/svg" xmlns:xlink="http://www.w3.org/1999/xlink" x="0px" y="0px"
	 viewBox="0 0 1000 1000" style="enable-background:new 0 0 1000 1000;" xml:space="preserve">
<style type="text/css">
	.st0{fill:#182D57;}
</style>
<g>
	<path class="st0" d="M153.37,954.81c0-17.38,0-34.76,0-52.95c17.94,0,35.25,0,53.05,0c1.75-17.09,3.19-33.45,5.14-49.76
		c11.35-94.99,53.51-173.89,124.1-238.1c19.45-17.69,38.53-35.83,56.99-54.54c15.24-15.46,26.02-33.6,26.74-56.27
		c0.6-18.9-5.06-36.16-17.57-49.78c-18.96-20.63-38.88-40.46-59.46-59.48c-44.11-40.77-81.66-86.06-104.47-142.39
		c-17.46-43.13-26.51-88.05-29.69-134.3c-0.32-4.72-0.7-9.43-1.12-14.14c-0.07-0.83-0.5-1.62-1.01-3.16c-17.19,0-34.52,0-52.26,0
		c0-17.79,0-34.81,0-52.48c230.08,0,460.16,0,690.77,0c0,17.23,0,34.47,0,52.47c-17.64,0-34.97,0-52.58,0
		c-1.71,16.82-3.12,32.95-5.02,49.02c-11.32,95.66-53.84,175.01-125.02,239.53c-19.04,17.26-37.69,35-55.74,53.28
		c-15.7,15.9-26.83,34.46-27.16,57.88c-0.23,16.58,4.33,31.91,14.64,44.57c11.34,13.92,23.96,26.86,36.55,39.7
		c25.62,26.14,53.21,50.55,77.1,78.17c46.17,53.35,69.62,117.22,79.13,186.5c2.37,17.24,3.65,34.62,5.51,52.7
		c17.24,0,34.54,0,53.12,0c0,18.33,0,35.93,0,53.53C614.54,954.81,383.96,954.81,153.37,954.81z M260.62,100.53
		c1.65,39.65,8.05,77.84,20.54,115.02c2.25,6.69,5.33,8.8,12.51,8.79c134.71-0.26,269.42-0.19,404.13-0.19
		c3.84,0,7.79,0.54,11.48-0.2c2.32-0.46,5.45-2.41,6.2-4.43c14.14-38.22,20.66-77.88,22.35-118.99
		C578.59,100.53,419.83,100.53,260.62,100.53z M472.23,698.06c0-58.77,0-119.17,0-179.56c-5.25,32.24-21.92,58.25-44.08,81.11
		c-11.71,12.08-23.99,23.64-36.4,35.01c-30.55,28-60.6,56.48-82.07,92.43c-8.78,14.7-16.2,30.23-24.23,45.38
		c0.73,0.54,1.47,1.08,2.2,1.62C348.87,748.85,410.09,723.65,472.23,698.06z M526.12,698.09c62.54,25.67,123.74,50.78,186.43,76.51
		c-1.87-4.84-2.97-8.09-4.37-11.22c-11.14-24.94-24.27-49-42.95-68.86c-26.88-28.58-55.31-55.72-83.41-83.13
		c-26.72-26.08-49.35-54.43-55.7-92.75C526.12,578.86,526.12,639.09,526.12,698.09z"/>
</g>
</svg>
