<?xml version="1.0" encoding="utf-8"?>
<!-- Generator: Adobe Illustrator 24.3.0, SVG Export Plug-In . SVG Version: 6.00 Build 0)  -->
<svg version="1.1" id="Layer_1" xmlns="http://www.w3.org/2000/svg" xmlns:xlink="http://www.w3.org/1999/xlink" x="0px" y="0px"
	 viewBox="0 0 1000 1000" style="enable-background:new 0 0 1000 1000;" xml:space="preserve">
<style type="text/css">
	.st0{fill:#182D57;}
</style>
<g>
	<path class="st0" d="M95.29,784.09c0-18.4,0-36.8,0-55.2c1.53-16.95,2.87-33.91,4.62-50.84c6.99-67.93,23.51-133.27,53.89-194.7
		c39.13-79.12,96.51-141.4,172.78-186.04c2.81-1.64,6.65-2.39,9.92-2.18c6.75,0.43,13.44,2.58,20.16,2.64
		c32.05,0.3,64.11,0.12,96.17,0.15c2.71,0,5.41,0.28,8.61,0.45c-2.15,5.93-4.04,10.79-5.67,15.73c-6.68,20.19-9.37,40.9-7.6,62.12
		c1.93,22.98,21.44,40.65,43.87,39.94c23.25-0.73,41.46-19.09,42.25-42.55c0.27-7.87,0.63-15.73,0.99-24.54
		c1.99,1.32,2.55,1.51,2.81,1.89c1.18,1.74,2.27,3.54,3.4,5.3c20.16,31.34,47.17,54.82,81.23,69.89
		c21.98,9.72,46.29,0.45,56.6-20.98c10.02-20.82,1.79-45.46-18.95-56.76c-5.53-3.01-11.24-5.75-16.48-9.2
		c-15.38-10.14-27.22-23.43-35.83-41.31c6.64,0,12.09,0.21,17.52-0.04c10.98-0.51,22.08-0.49,32.86-2.26
		c5.29-0.87,9.15-0.76,13.76,1.97c92.53,54.85,155.51,133.95,192.76,234.27c18.77,50.54,29.55,102.9,34.21,156.45
		c3.35,38.45,6.34,77.05,0.4,115.58c-5.91,38.34-22.75,70.12-55.62,92.21c-20.76,13.95-43.83,22.45-67.91,28.38
		c-42.78,10.54-86.44,14.62-130.32,16.08c-120.03,3.99-240.08,6.3-359.87-5.13c-34.81-3.32-69.07-9.92-101.68-23.33
		c-45.84-18.85-75.24-51.41-84.39-100.91C98.11,802.18,96.77,793.12,95.29,784.09z M364.31,620.07c40.7,0,80.03,0,119.48,0
		c-3.75,18.43-18.99,32.85-38.6,34.55c-17.22,1.5-34.62,0.99-51.95,1.3c-6.75,0.12-13.5,0.02-20.72,0.02
		c0,17.2-0.15,33.43,0.17,49.65c0.04,2.25,2.04,4.72,3.65,6.65c38.05,45.59,76.22,91.08,114.22,136.7
		c3.29,3.95,6.65,5.78,11.97,5.73c28.38-0.27,56.76-0.12,85.14-0.15c2.51,0,5.02-0.3,7.54-0.46c0.56-0.71,1.12-1.42,1.68-2.13
		c-35.96-45.1-72.92-89.42-109.59-135.09c49.47-14.97,83.56-43.81,91.94-96.92c13.55,0,26.36,0,39.42,0
		c4.92-18.94,9.71-37.39,14.74-56.77c-18.47,0-35.99,0-52,0c-5.26-14.84-10.12-28.54-15.06-42.45c15.27,0,30.76-0.18,46.25,0.11
		c4.74,0.09,6.91-1.22,8.02-6.07c2.92-12.78,6.47-25.42,9.73-38.13c1-3.91,1.89-7.85,3-12.49c-4.25,0-7.38,0-10.52,0
		c-75.94,0-151.88,0-227.82,0c-13.15,0-13.14,0-16.32,13.23c-0.67,2.81-1.44,5.59-2.1,8.4c-3.91,16.72-7.79,33.44-11.86,50.92
		c14.19,0,27.3-0.17,40.4,0.05c14.17,0.24,28.42-0.01,42.46,1.52c15.32,1.67,27.32,9.38,34.8,25.18c-35.18,0-69.14,0-103.33,0
		C374.11,582.38,369.37,600.61,364.31,620.07z"/>
	<path class="st0" d="M598.34,55.4c21.42,8.44,26.95,17.42,23.8,40.5c-4.07,29.83-16.25,56.89-29.8,83.36
		c-4.66,9.11-9.7,18.06-15.23,26.65c-1.61,2.51-5.52,5-8.39,5.02c-46.51,0.31-93.03,0.28-139.55,0.06
		c-2.58-0.01-6.27-1.69-7.54-3.76c-19.85-32.36-36.63-66.1-44.64-103.59c-0.55-2.56-0.92-5.17-1.25-7.77
		c-2.9-23.03,2.45-32.08,23.89-40.47c5.26,0,10.51,0,15.77,0c6.87,2.39,13.71,4.87,20.62,7.17c27.33,9.07,55.3,15.48,84.02,9.83
		c21.14-4.16,41.7-11.23,62.52-17C587.82,55.4,593.08,55.4,598.34,55.4z"/>
	<path class="st0" d="M499.03,228.51c48.58,0.01,97.16-0.12,145.73,0.07c19.45,0.07,31.85,16.37,26.09,33.8
		c-3.02,9.15-9.33,15.09-18.83,17.18c-3.3,0.72-6.76,0.95-10.15,0.95c-95.32,0.05-190.63,0.05-285.95-0.01
		c-3.64,0-7.39-0.27-10.91-1.14c-12.1-2.96-20.46-14.96-19.27-27.18c1.23-12.65,11.07-22.52,23.62-23.47
		c4.18-0.31,8.4-0.21,12.6-0.21C407.66,228.5,453.35,228.51,499.03,228.51z"/>
	<path class="st0" d="M535.95,308.2c-13.59,18.71-19.69,39.1-19.05,61.66c0.56,19.89-15.28,33.15-33.18,27.7
		c-10.14-3.09-16.86-10.07-17.98-20.74c-2.74-26.21,2.13-51.23,13.75-74.84c0.96-1.95,4.29-3.87,6.53-3.89
		c32.56-0.25,65.12-0.27,97.68,0.03c2.36,0.02,5.82,2.33,6.86,4.49c13.17,27.27,33.08,47.5,60.51,60.6
		c14.05,6.7,18.93,22.01,12.23,35.2c-6.52,12.84-21.33,17.83-35,11.41c-41.6-19.52-70.54-51.08-88.15-93.3
		c-0.91-2.17-1.74-4.38-2.67-6.55C537.3,309.51,536.82,309.18,535.95,308.2z"/>
	<path class="st0" d="M358.02,96.39c6.66,41.29,24.16,77.82,44.92,114.18c-2.98,0.24-5.15,0.54-7.33,0.57
		c-17.32,0.25-34.65,0.53-51.97,0.55c-2.06,0-4.68-0.95-6.08-2.4c-14.91-15.4-26.07-32.8-28.76-54.7
		C305.01,123.81,328.19,95.94,358.02,96.39z"/>
	<path class="st0" d="M594.74,211.19c20.91-36.88,38.61-73.55,45.12-114.39c21.76-2.26,43.95,16.36,48.4,40.01
		c3.45,18.33-1.38,34.84-10.64,50.39c-2.81,4.72-6.37,8.98-9.45,13.54c-5.49,8.13-12,11.85-22.79,10.84
		C629.09,210.07,612.56,211.19,594.74,211.19z"/>
</g>
</svg>
