<?xml version="1.0" encoding="utf-8"?>
<!-- Generator: Adobe Illustrator 24.3.0, SVG Export Plug-In . SVG Version: 6.00 Build 0)  -->
<svg version="1.1" id="Layer_1" xmlns="http://www.w3.org/2000/svg" xmlns:xlink="http://www.w3.org/1999/xlink" x="0px" y="0px"
	 viewBox="0 0 1000 1000" style="enable-background:new 0 0 1000 1000;" xml:space="preserve">
<style type="text/css">
	.st0{fill:#182D57;}
</style>
<g>
	<path class="st0" d="M63.57,819.02c0-243.31,0-486.62,0-729.93c7.2-18.37,20.95-24.12,40.17-24.07
		c166.2,0.43,332.39,0.25,498.59,0.25c25.31,0,36.79,11.49,36.8,36.88c0.02,70.89-1.12,141.8,0.63,212.65
		c0.59,23.88-7.08,41.39-21.95,58.6c-35.4,40.98-75.41,76.85-117.93,110.11c-13.06,10.22-16.39,23.09-7.99,36.56
		c23.82,38.17,35.45,80.09,38.93,124.45c2.33,29.67,1.61,59.33-3.49,89.55c-3.45,0-6.51,0-9.58,0c-15.88,0-31.77-0.11-47.65,0.05
		c-9.39,0.1-15.52,4.77-16.98,12.34c-2.03,10.54,4.69,18.5,16.39,18.59c26.37,0.21,52.76-0.22,79.12,0.22
		c10.93,0.18,19.29-3.61,27.68-10.47c17.53-14.31,35.95-27.55,54.07-41.14c2.33-1.75,5.09-2.93,8.74-4.98
		c0,33.59,0.02,65.6-0.01,97.62c-0.02,25.4-11.37,36.65-36.96,36.65c-166.48,0-332.96-0.18-499.44,0.25
		C83.65,843.27,70.52,836.99,63.57,819.02z M577.23,219.14c-0.55,0.21-1.11,0.42-1.66,0.64c-1.55-2.57-3.18-5.09-4.63-7.7
		c-13.9-25-27.8-50.01-41.64-75.04c-4.06-7.34-10.06-10.59-18.35-8.84c-7.23,1.52-11.64,7.68-11.66,16.59
		c-0.07,45.65-0.1,91.3,0.02,136.95c0.03,10.1,6.39,16.66,15.38,16.72c9.09,0.06,15.36-6.33,15.45-16.53
		c0.19-22.4,0.07-44.8,0.08-67.2c0-2.67,0-5.34,0-8.01c3.05,2.06,4.57,4.32,5.89,6.69c13.78,24.75,27.49,49.53,41.3,74.26
		c5.09,9.11,11.37,12.42,19.14,10.4c7.57-1.96,11.59-8.23,11.59-18.49c0.03-44.23,0.01-88.47,0.01-132.7c0-1.13,0.04-2.27-0.03-3.4
		c-0.57-9.48-6.72-15.7-15.52-15.7c-8.96,0-15.22,6-15.31,15.69C577.08,168.68,577.23,193.91,577.23,219.14z M327.94,217.33
		c-0.09-30.01-7.57-52.85-21.23-69.21c-21.54-25.79-55.02-27.56-78.02-3.74c-5.05,5.23-9.8,11.25-12.91,17.75
		c-17.3,36.15-17.18,72.13,3.17,107.19c10.9,18.77,27.18,30.35,49.34,28.71c22.59-1.67,38.94-14.43,48.66-34.92
		C324.44,247.32,328.26,230.56,327.94,217.33z M378.53,765.14c7.94,0,15.88,0.06,23.81-0.01c12.43-0.11,19-5.61,18.85-15.65
		c-0.15-9.81-7-15.31-19.36-15.38c-11.62-0.06-23.31-0.76-34.85,0.2c-10.87,0.91-17.31-2.77-23.43-12.05
		c-15.52-23.53-46.35-22.93-62.61,0.33c-5.35,7.66-10.2,15.69-15.78,23.17c-1.78,2.38-5.44,5.19-7.76,4.81
		c-2.34-0.38-4.3-4.32-5.98-6.99c-1.02-1.61-1.17-3.76-1.74-5.65c-4.72-15.64-15.17-25.29-31.26-27.44
		c-15.75-2.1-27.84,4.61-37.03,17.65c-2.13,3.02-7.08,5.5-10.85,5.68c-14.14,0.66-28.34,0.14-42.51,0.31
		c-10.66,0.13-17.57,6.38-17.64,15.49c-0.07,9.24,6.61,15.33,17.43,15.48c11.9,0.17,23.84-0.48,35.71,0.16
		c18.84,1.02,34.77-2.96,44.86-20.85c2.94-5.21,8.65-4.2,11.16,1.33c1.04,2.3,1.54,4.85,2.21,7.3
		c4.18,15.28,13.59,25.53,29.36,28.43c16.74,3.08,29.97-3.08,39.37-17.36c4.67-7.1,9.42-14.15,14.19-21.18
		c6.11-9,9.55-9.06,15.49-0.33c1.12,1.64,2.2,3.3,3.3,4.95c7.85,11.71,18.74,17.71,32.94,17.59
		C363.78,765.08,371.16,765.13,378.53,765.14z M430.88,267.63c2.14,6.33,4.06,12.25,6.14,18.1c3.62,10.13,11.41,14.8,20.1,12.18
		c8.9-2.67,12.97-11.62,9.48-22.14c-14.97-45.12-30.17-90.16-45.14-135.27c-2.6-7.85-7.14-12.92-15.76-12.85
		c-8.66,0.07-13,5.43-15.54,13.18c-7.82,23.93-15.86,47.79-23.83,71.67c-7.08,21.2-14.29,42.35-21.22,63.6
		c-3.32,10.17,0.5,18.72,9.1,21.66c8.65,2.96,16.8-1.61,20.43-11.59c1.74-4.78,2.92-9.8,5-14.42c0.8-1.79,3.37-3.9,5.17-3.94
		C400.09,267.5,415.38,267.63,430.88,267.63z M211.31,531.78c-2.83,0-5.67,0-8.5,0c-30.04,0-60.09-0.09-90.13,0.06
		c-10.7,0.06-17.74,6.34-17.99,15.29c-0.25,8.94,6.65,15.39,17.26,16.04c1.98,0.12,3.97,0.06,5.95,0.06
		c62.35,0,124.71,0.01,187.06-0.03c3.66,0,7.42-0.07,10.97-0.83c7.96-1.71,12.45-8.13,11.84-16.2c-0.68-9.02-7.32-14.32-18.68-14.35
		C276.5,531.72,243.9,531.79,211.31,531.78z M125.9,267.62c0-4.68,0-8.06,0-11.44c0-36.86,0.09-73.71-0.07-110.57
		c-0.05-11.49-6.29-18.07-15.99-17.85c-9.29,0.21-15.2,6.77-15.23,17.81c-0.12,45.08-0.14,90.15,0.01,135.23
		c0.04,11.96,6.02,17.61,17.98,17.68c19,0.11,38,0.08,57,0.01c11.52-0.04,18.3-5.88,18.28-15.48c-0.02-9.58-6.79-15.31-18.37-15.37
		C155.38,267.56,141.26,267.62,125.9,267.62z M211.67,376.51c-33.16,0-66.33-0.06-99.49,0.03c-10.62,0.03-17.58,6.4-17.49,15.52
		c0.09,9.13,7.01,15.16,17.73,15.31c7.08,0.1,14.17,0.02,21.26,0.02c58.39,0,116.78-0.07,175.17,0.08
		c8.47,0.02,15.33-2.11,18.29-10.62c3.68-10.56-3.9-20.23-15.97-20.28C278,376.42,244.83,376.52,211.67,376.51z M211.04,640.67
		c33.16,0,66.32,0.06,99.48-0.03c10.33-0.03,16.44-5.11,17.22-13.76c0.92-10.15-5.92-17.04-17.42-17.09
		c-26.36-0.11-52.72-0.04-79.08-0.04c-39.11,0-78.23,0.07-117.34-0.06c-7.32-0.02-13.59,1.54-17.3,8.36
		c-5.82,10.71,1.82,22.48,14.95,22.56C144.72,640.79,177.88,640.67,211.04,640.67z M211.75,454.34c-25.79,0-51.58-0.01-77.37,0
		c-8.22,0-16.45-0.21-24.65,0.16c-8.52,0.39-14.55,6.5-15.01,14.45c-0.46,8.05,5.64,15.05,14.26,16.26
		c1.67,0.23,3.39,0.18,5.09,0.18c64.9,0.01,129.8,0.03,194.7-0.05c3.06,0,6.31-0.29,9.14-1.34c7.29-2.69,10.59-8.35,9.77-16
		c-0.82-7.71-5.36-12.29-13.07-13.37c-2.79-0.39-5.65-0.28-8.49-0.28C274.66,454.34,243.2,454.34,211.75,454.34z M462.65,376.51
		c-22.96,0-45.92-0.04-68.88,0.01c-12.18,0.03-19.02,5.82-18.83,15.75c0.18,9.53,6.92,15.1,18.63,15.11
		c46.2,0.04,92.41,0.04,138.61,0c12.1-0.01,19.03-5.9,18.83-15.76c-0.19-9.52-6.94-15.07-18.63-15.1
		C509.14,376.48,485.9,376.51,462.65,376.51z M436.15,640.67c14.46,0,28.92,0.09,43.38-0.03c10.71-0.09,17.67-6.25,17.7-15.31
		c0.03-9.09-6.98-15.5-17.58-15.54c-29.2-0.11-58.41-0.12-87.61,0.01c-10.58,0.05-17.3,6.51-17.11,15.85
		c0.18,9.01,6.64,14.89,16.98,14.99C406.66,640.78,421.41,640.67,436.15,640.67z M421.83,563.21c9.89,0,19.79,0.23,29.67-0.06
		c11.03-0.33,17.4-6.22,17.47-15.5c0.07-9.6-6.62-15.7-18.03-15.81c-19.21-0.18-38.43-0.16-57.65-0.01
		c-11.49,0.09-18.27,6.04-18.35,15.53c-0.08,9.54,6.55,15.52,18.07,15.81C402.61,563.41,412.22,563.22,421.83,563.21z
		 M420.88,454.37c-9.89,0-19.78-0.18-29.67,0.05c-9.82,0.23-15.98,6.02-16.27,14.73c-0.3,9.02,6.04,15.95,15.93,16.11
		c19.77,0.33,39.56,0.31,59.33,0c9.35-0.15,15.86-6.89,15.98-15.35c0.13-8.84-6.48-15.27-16.48-15.51
		C440.1,454.18,430.49,454.36,420.88,454.37z"/>
	<path class="st0" d="M181,936.43c-18.25-6.68-25.78-19.81-24.08-38.97c0.65-7.29,0.11-14.69,0.11-23.42c4.06,0,7.6,0,11.15,0
		c145.43,0,290.86,0.02,436.29-0.02c32.65-0.01,56.91-17.91,64-47.52c1.56-6.53,1.9-13.47,1.94-20.23
		c0.18-34.58,0.39-69.16-0.14-103.73c-0.13-8.21,2.48-12.29,10.05-14.61c16.97-5.21,33.8-10.87,52.23-16.86c0,5.39,0,8.67,0,11.96
		c0,71.14-0.41,142.28,0.27,213.42c0.19,19.32-5.81,32.91-24.24,39.98C532.71,936.43,356.86,936.43,181,936.43z"/>
	<path class="st0" d="M590.81,702.78c1.85-3.93,2.47-5.4,3.21-6.8c14.38-27.31,28.8-54.61,43.12-81.95
		c1.96-3.74,3.51-5.95,8.89-5.15c35.33,5.21,66.67-19.48,70.68-55.1c3.84-34.1-22.54-64.85-58.09-67.72
		c-33.29-2.69-63.72,24.47-65.42,58.84c-0.93,18.84,6.21,34.85,19.67,48.54c-15.9,30.09-31.69,59.99-47.48,89.88
		c0.07-62.65-13.75-121.32-44.98-176.01c55.85-45.11,109.28-91.92,149.72-152.58c45.79,24.34,91.43,48.61,137.87,73.3
		c-27.75,67.01-36.91,137.6-43.24,209.47C701.2,642.34,643.88,663.48,590.81,702.78z"/>
	<path class="st0" d="M821.93,400.23c-45.47-24.2-90.64-48.23-136.52-72.65c1.31-2.79,2.35-5.29,3.62-7.67
		c35.81-67.17,71.62-134.33,107.47-201.47c13.04-24.43,36.3-27.58,55.3-7.48c21.02,22.24,42.02,44.49,62.83,66.92
		c11.6,12.5,13.14,24.58,5.14,39.66c-31.41,59.25-62.96,118.43-94.48,177.62C824.39,396.86,823.16,398.39,821.93,400.23z"/>
	<path class="st0" d="M686.01,547.47c0.16,16.93-14.43,31.39-31.54,31.27c-16.58-0.11-30.71-14.37-30.85-31.12
		c-0.13-16.53,13.96-30.9,30.69-31.27C671.19,515.96,685.85,530.36,686.01,547.47z"/>
	<path class="st0" d="M296.88,213.17c-0.05,14.41-2.63,28.22-10.48,40.55c-11.56,18.15-28.93,18.31-40.82,0.55
		c-14.34-21.41-14.27-61.42,0.13-82.64c11.74-17.3,29.01-17.31,40.39,0.23C294.22,184.37,296.9,198.45,296.88,213.17z"/>
	<path class="st0" d="M391.26,235.95c4.86-14.44,9.3-27.64,13.74-40.85c0.59-0.01,1.19-0.01,1.78-0.02
		c4.45,13.3,8.91,26.61,13.68,40.86C410.29,235.95,401.47,235.95,391.26,235.95z"/>
</g>
</svg>
